<svg aria-hidden="true" style="position: absolute; width: 0; height: 0; overflow: hidden;" version="1.1" xmlns="http://www.w3.org/2000/svg" xmlns:xlink="http://www.w3.org/1999/xlink">
<defs>
<symbol id="hero" viewBox="0 0 37 32">
<path fill="#4ca3e9" style="fill: var(--color1, #4ca3e9)" opacity="0.18" d="M11.136 22.789h-3.843c-0.111 0-0.2-0.089-0.2-0.2v-3.811c0-0.111 0.089-0.2 0.2-0.2h3.843c0.111 0 0.2 0.089 0.2 0.2v3.811c0.004 0.111-0.089 0.2-0.2 0.2z"></path>
<path fill="#4ca3e9" style="fill: var(--color1, #4ca3e9)" opacity="0.18" d="M30.304 14.829h-3.846c-0.111 0-0.2-0.089-0.2-0.2v-3.811c0-0.111 0.089-0.2 0.2-0.2h3.843c0.111 0 0.2 0.089 0.2 0.2v3.811c0.004 0.111-0.086 0.2-0.196 0.2z"></path>
<path fill="#4ca3e9" style="fill: var(--color1, #4ca3e9)" opacity="0.18" d="M26.268 25.754h-3.843c-0.111 0-0.2-0.089-0.2-0.2v-3.811c0-0.111 0.089-0.2 0.2-0.2h3.843c0.111 0 0.2 0.089 0.2 0.2v3.811c0.004 0.111-0.086 0.2-0.2 0.2z"></path>
<path fill="#4ca3e9" style="fill: var(--color1, #4ca3e9)" opacity="0.18" d="M12.6 15.471h-2.846c-0.111 0-0.2-0.089-0.2-0.2v-2.811c0-0.111 0.089-0.2 0.2-0.2h2.846c0.111 0 0.2 0.089 0.2 0.2v2.811c0 0.111-0.089 0.2-0.2 0.2z"></path>
<path fill="#12114a" style="fill: var(--color2, #12114a)" opacity="0.1" d="M33.936 30.571h-29.65l5.775-4.496h18.104z"></path>
<path fill="#2b3c64" style="fill: var(--color3, #2b3c64)" d="M10.089 12.864h18.204v10.711h-18.204v-10.711z"></path>
<path fill="#fff" style="fill: var(--color4, #fff)" d="M10.625 13.4h17.132v9.639h-17.132v-9.639z"></path>
<path fill="#c7d1e0" style="fill: var(--color5, #c7d1e0)" d="M15.496 15.329h-3.843c-0.079 0-0.143-0.064-0.143-0.143v0c0-0.079 0.064-0.143 0.143-0.143h3.839c0.079 0 0.143 0.064 0.143 0.143v0c0 0.079-0.061 0.143-0.139 0.143z"></path>
<path fill="#c7d1e0" style="fill: var(--color5, #c7d1e0)" d="M19.129 15.329h-3.021c-0.061 0-0.111-0.064-0.111-0.143v0c0-0.079 0.050-0.143 0.111-0.143h3.018c0.061 0 0.111 0.064 0.111 0.143v0c0.004 0.079-0.046 0.143-0.107 0.143z"></path>
<path fill="#c7d1e0" style="fill: var(--color5, #c7d1e0)" d="M16.721 18.007h-5.071c-0.079 0-0.143-0.064-0.143-0.143v0c0-0.079 0.064-0.143 0.143-0.143h5.071c0.079 0 0.143 0.064 0.143 0.143v0c0 0.079-0.064 0.143-0.143 0.143z"></path>
<path fill="#c7d1e0" style="fill: var(--color5, #c7d1e0)" d="M13.518 16.221h-1.857c-0.079 0-0.143-0.064-0.143-0.143v0c0-0.079 0.064-0.143 0.143-0.143h1.857c0.079 0 0.143 0.064 0.143 0.143v0c0 0.079-0.064 0.143-0.143 0.143z"></path>
<path fill="#c7d1e0" style="fill: var(--color5, #c7d1e0)" d="M17.293 16.221h-3.282c-0.079 0-0.143-0.064-0.143-0.143v0c0-0.079 0.064-0.143 0.143-0.143h3.282c0.079 0 0.143 0.064 0.143 0.143v0c0 0.079-0.064 0.143-0.143 0.143z"></path>
<path fill="#c7d1e0" style="fill: var(--color5, #c7d1e0)" d="M15.039 14.436h-3.382c-0.079 0-0.143-0.064-0.143-0.143v0c0-0.079 0.064-0.143 0.143-0.143h3.382c0.079 0 0.143 0.064 0.143 0.143v0c0 0.079-0.064 0.143-0.143 0.143z"></path>
<path fill="#c7d1e0" style="fill: var(--color5, #c7d1e0)" d="M20.689 14.436h-5.032c-0.050 0-0.093-0.064-0.093-0.143v0c0-0.079 0.039-0.143 0.093-0.143h5.032c0.050 0 0.093 0.064 0.093 0.143v0c0 0.079-0.039 0.143-0.093 0.143z"></path>
<path fill="#c7d1e0" style="fill: var(--color5, #c7d1e0)" d="M18.314 17.114h-6.693c-0.068 0-0.121-0.064-0.121-0.143v0c0-0.079 0.054-0.143 0.121-0.143h6.689c0.068 0 0.121 0.064 0.121 0.143v0c0 0.079-0.054 0.143-0.118 0.143z"></path>
<path fill="#c7d1e0" style="fill: var(--color5, #c7d1e0)" d="M15.496 19.793h-3.843c-0.079 0-0.143-0.064-0.143-0.143v0c0-0.079 0.064-0.143 0.143-0.143h3.839c0.079 0 0.143 0.064 0.143 0.143v0c0.004 0.079-0.061 0.143-0.139 0.143z"></path>
<path fill="#c7d1e0" style="fill: var(--color5, #c7d1e0)" d="M16.721 22.468h-5.071c-0.079 0-0.143-0.064-0.143-0.143v0c0-0.079 0.064-0.143 0.143-0.143h5.071c0.079 0 0.143 0.064 0.143 0.143v0c0 0.079-0.064 0.143-0.143 0.143z"></path>
<path fill="#c7d1e0" style="fill: var(--color5, #c7d1e0)" d="M20.482 22.468h-3.025c-0.079 0-0.143-0.064-0.143-0.143v0c0-0.079 0.064-0.143 0.143-0.143h3.025c0.079 0 0.143 0.064 0.143 0.143v0c0 0.079-0.064 0.143-0.143 0.143z"></path>
<path fill="#c7d1e0" style="fill: var(--color5, #c7d1e0)" d="M13.518 20.682h-1.857c-0.079 0-0.143-0.064-0.143-0.143v0c0-0.079 0.064-0.143 0.143-0.143h1.857c0.079 0 0.143 0.064 0.143 0.143v0c0 0.079-0.064 0.143-0.143 0.143z"></path>
<path fill="#c7d1e0" style="fill: var(--color5, #c7d1e0)" d="M17.293 20.682h-3.282c-0.079 0-0.143-0.064-0.143-0.143v0c0-0.079 0.064-0.143 0.143-0.143h3.282c0.079 0 0.143 0.064 0.143 0.143v0c0 0.079-0.064 0.143-0.143 0.143z"></path>
<path fill="#c7d1e0" style="fill: var(--color5, #c7d1e0)" d="M17.786 18.9h-6.029c-0.139 0-0.254-0.064-0.254-0.143v0c0-0.079 0.114-0.143 0.254-0.143h6.029c0.139 0 0.254 0.064 0.254 0.143v0c0 0.079-0.114 0.143-0.254 0.143z"></path>
<path fill="#c7d1e0" style="fill: var(--color5, #c7d1e0)" d="M18.914 21.575h-7.286c-0.071 0-0.132-0.064-0.132-0.143v0c0-0.079 0.061-0.143 0.132-0.143h7.289c0.071 0 0.132 0.064 0.132 0.143v0c-0.004 0.079-0.061 0.143-0.136 0.143z"></path>
<path fill="#dce4f3" style="fill: var(--color6, #dce4f3)" d="M34.125 28.075h-29.839l5.811-4.5h18.218z"></path>
<path fill="#c7d1e0" style="fill: var(--color5, #c7d1e0)" d="M11.939 24.004h-1l0.364-0.286h0.954z"></path>
<path fill="#c7d1e0" style="fill: var(--color5, #c7d1e0)" d="M11.364 24.539h-1.064l0.407-0.321h1.014z"></path>
<path fill="#c7d1e0" style="fill: var(--color5, #c7d1e0)" d="M13.021 24.539h-1.064l0.332-0.321h1.014z"></path>
<path fill="#c7d1e0" style="fill: var(--color5, #c7d1e0)" d="M14.675 24.539h-1.064l0.257-0.321h1.014z"></path>
<path fill="#c7d1e0" style="fill: var(--color5, #c7d1e0)" d="M16.332 24.539h-1.064l0.179-0.321h1.014z"></path>
<path fill="#c7d1e0" style="fill: var(--color5, #c7d1e0)" d="M17.989 24.539h-1.064l0.1-0.321h1.014z"></path>
<path fill="#c7d1e0" style="fill: var(--color5, #c7d1e0)" d="M19.646 24.539h-1.068l0.025-0.321h1.014z"></path>
<path fill="#c7d1e0" style="fill: var(--color5, #c7d1e0)" d="M21.3 24.539h-1.064l-0.050-0.321h1.014z"></path>
<path fill="#c7d1e0" style="fill: var(--color5, #c7d1e0)" d="M22.957 24.539h-1.064l-0.129-0.321h1.014z"></path>
<path fill="#c7d1e0" style="fill: var(--color5, #c7d1e0)" d="M24.614 24.539h-1.068l-0.204-0.321h1.014z"></path>
<path fill="#c7d1e0" style="fill: var(--color5, #c7d1e0)" d="M26.268 24.539h-1.064l-0.282-0.321h1.014z"></path>
<path fill="#c7d1e0" style="fill: var(--color5, #c7d1e0)" d="M27.925 24.539h-1.064l-0.361-0.321h1.014z"></path>
<path fill="#c7d1e0" style="fill: var(--color5, #c7d1e0)" d="M10.771 25.075h-1.211l0.5-0.393h1.15z"></path>
<path fill="#c7d1e0" style="fill: var(--color5, #c7d1e0)" d="M12.561 25.075h-1.211l0.407-0.393h1.146z"></path>
<path fill="#c7d1e0" style="fill: var(--color5, #c7d1e0)" d="M14.35 25.075h-1.211l0.311-0.393h1.15z"></path>
<path fill="#c7d1e0" style="fill: var(--color5, #c7d1e0)" d="M16.139 25.075h-1.211l0.218-0.393h1.15z"></path>
<path fill="#c7d1e0" style="fill: var(--color5, #c7d1e0)" d="M17.929 25.075h-1.211l0.125-0.393h1.15z"></path>
<path fill="#c7d1e0" style="fill: var(--color5, #c7d1e0)" d="M19.718 25.075h-1.211l0.032-0.393h1.146z"></path>
<path fill="#c7d1e0" style="fill: var(--color5, #c7d1e0)" d="M21.507 25.075h-1.211l-0.064-0.393h1.15z"></path>
<path fill="#c7d1e0" style="fill: var(--color5, #c7d1e0)" d="M23.296 25.075h-1.211l-0.157-0.393h1.15z"></path>
<path fill="#c7d1e0" style="fill: var(--color5, #c7d1e0)" d="M25.086 25.075h-1.211l-0.25-0.393h1.146z"></path>
<path fill="#c7d1e0" style="fill: var(--color5, #c7d1e0)" d="M26.875 25.075h-1.211l-0.346-0.393h1.15z"></path>
<path fill="#c7d1e0" style="fill: var(--color5, #c7d1e0)" d="M28.664 25.075h-1.211l-0.439-0.393h1.15z"></path>
<path fill="#c7d1e0" style="fill: var(--color5, #c7d1e0)" d="M10.014 25.754h-1.318l0.593-0.464h1.243z"></path>
<path fill="#c7d1e0" style="fill: var(--color5, #c7d1e0)" d="M11.968 25.754h-1.318l0.479-0.464h1.246z"></path>
<path fill="#c7d1e0" style="fill: var(--color5, #c7d1e0)" d="M23.621 25.754h-10.996l0.357-0.464h10.389z"></path>
<path fill="#c7d1e0" style="fill: var(--color5, #c7d1e0)" d="M25.625 25.754h-1.318l-0.296-0.464h1.246z"></path>
<path fill="#c7d1e0" style="fill: var(--color5, #c7d1e0)" d="M27.575 25.754h-1.318l-0.407-0.464h1.246z"></path>
<path fill="#c7d1e0" style="fill: var(--color5, #c7d1e0)" d="M29.529 25.754h-1.318l-0.521-0.464h1.246z"></path>
<path fill="#c7d1e0" style="fill: var(--color5, #c7d1e0)" d="M13.925 24.004h-0.996l0.275-0.286h0.954z"></path>
<path fill="#c7d1e0" style="fill: var(--color5, #c7d1e0)" d="M15.329 24.004h-0.996l0.214-0.286h0.954z"></path>
<path fill="#c7d1e0" style="fill: var(--color5, #c7d1e0)" d="M16.732 24.004h-0.996l0.15-0.286h0.954z"></path>
<path fill="#c7d1e0" style="fill: var(--color5, #c7d1e0)" d="M18.136 24.004h-0.996l0.089-0.286h0.954z"></path>
<path fill="#c7d1e0" style="fill: var(--color5, #c7d1e0)" d="M19.539 24.004h-0.996l0.025-0.286h0.954z"></path>
<path fill="#c7d1e0" style="fill: var(--color5, #c7d1e0)" d="M20.943 24.004h-0.996l-0.036-0.286h0.954z"></path>
<path fill="#c7d1e0" style="fill: var(--color5, #c7d1e0)" d="M22.393 24.004h-0.996l-0.1-0.286h0.954z"></path>
<path fill="#c7d1e0" style="fill: var(--color5, #c7d1e0)" d="M24.618 24.004h-0.996l-0.204-0.286h0.954z"></path>
<path fill="#c7d1e0" style="fill: var(--color5, #c7d1e0)" d="M25.95 24.004h-0.996l-0.261-0.286h0.954z"></path>
<path fill="#c7d1e0" style="fill: var(--color5, #c7d1e0)" d="M27.282 24.004h-0.996l-0.318-0.286h0.954z"></path>
<path fill="#c7d1e0" style="fill: var(--color5, #c7d1e0)" d="M22.468 27.468h-6.714l0.532-1.25h5.654z"></path>
<path fill="#96c1ea" style="fill: var(--color7, #96c1ea)" d="M33.889 28.571h-29.364c-0.1 0-0.182-0.082-0.182-0.182v-0.318h29.729v0.318c0 0.104-0.079 0.182-0.182 0.182z"></path>
<path fill="#f78c57" style="fill: var(--color8, #f78c57)" d="M32.479 14.668c0 0.082-0.064 0.146-0.146 0.146s-0.146-0.064-0.146-0.146c0-0.082 0.064-0.146 0.146-0.146s0.146 0.064 0.146 0.146z"></path>
<path fill="#f78c57" style="fill: var(--color8, #f78c57)" d="M10.411 18.579c0 0.197-0.16 0.357-0.357 0.357s-0.357-0.16-0.357-0.357c0-0.197 0.16-0.357 0.357-0.357s0.357 0.16 0.357 0.357z"></path>
<path fill="#f78c57" style="fill: var(--color8, #f78c57)" d="M10.054 7.725c0 0.079-0.064 0.143-0.143 0.143s-0.143-0.064-0.143-0.143c0-0.079 0.064-0.143 0.143-0.143s0.143 0.064 0.143 0.143z"></path>
<path fill="#f78c57" style="fill: var(--color8, #f78c57)" d="M29.646 22.911c0 0.082-0.064 0.146-0.146 0.146s-0.146-0.064-0.146-0.146 0.064-0.146 0.146-0.146c0.082 0 0.146 0.068 0.146 0.146z"></path>
<path fill="#02bca6" style="fill: var(--color9, #02bca6)" d="M4.457 31.721c0 0-0.643 0.221-0.886 0.254s-1.15 0.064-1.396-0.082c-0.443-0.261-0.293-0.804-0.018-0.854 0.275-0.046 0.8 0.086 1.25 0.121 0.336 0.029 0.843-0.146 0.843-0.146l0.207 0.707z"></path>
<path fill="#31438a" style="fill: var(--color10, #31438a)" d="M2.857 28.889c0 0-1.939-0.639-2.468-0.293-0.529 0.343-0.446 1.243-0.171 1.579 0.171 0.207 0.639 0.704 1.757 0.989l3.271 0.6 0.475-0.493-0.804-2.211-2.061-0.171z"></path>
<path fill="#31438a" style="fill: var(--color10, #31438a)" d="M6.689 28.889c0 0 1.939-0.639 2.468-0.293 0.529 0.343 0.468 1.204 0.189 1.536-0.171 0.207-0.404 0.343-0.65 0.493-0.239 0.143-2.539 1.064-4.393 1.146-0.304-0.15-0.482-0.504-0.482-0.504l0.804-2.211 2.064-0.168z"></path>
<path fill="#31438a" style="fill: var(--color10, #31438a)" opacity="0.3" d="M5.054 30.796c0 0 0.436-0.193 1.379-0.693 0.893-0.471 1.021-0.454 1.507-0.468l-2.886 1.161z"></path>
<path fill="#02bca6" style="fill: var(--color9, #02bca6)" d="M5.104 31.721c0 0 0.643 0.221 0.886 0.254s1.15 0.064 1.396-0.082c0.443-0.261 0.293-0.804 0.018-0.854-0.275-0.046-0.8 0.086-1.25 0.121-0.336 0.029-0.843-0.146-0.843-0.146s0.079 0.357-0.207 0.707z"></path>
<path fill="#31438a" style="fill: var(--color10, #31438a)" opacity="0.3" d="M5.254 30.982c0 0-0.696-0.236-1.639-0.736-0.893-0.471-1.521-0.596-2.004-0.614l3.643 1.35z"></path>
<path fill="#3a3aa5" style="fill: var(--color11, #3a3aa5)" d="M7.121 29.75h-4.371l-0.196-1.036 4.793-0.046z"></path>
<path fill="#ffb612" style="fill: var(--color12, #ffb612)" d="M6.604 29.525l-0.714-0.071 1.314-1.939-0.429-1.471-0.525 2.564h-2.543l-0.45-2.475-0.579 1.461 1.389 1.861-0.714 0.071c0 0-2.1-1.139-1.829-2.121s0.886-2.85 1.379-3.168c0.304-0.196 0.554-0.207 0.886-0.293 0.021-0.004 0.039-0.011 0.061-0.014 0.282-0.071 0.493-0.104 0.493-0.104h1.268c0 0 0.186 0.029 0.443 0.093 0.036 0.007 0.071 0.018 0.111 0.029 0.332 0.086 0.668 0.175 0.971 0.371 0.496 0.318 1.136 2.329 1.189 3.132 0.054 0.8-1.721 2.075-1.721 2.075z"></path>
<path fill="#eaeaea" style="fill: var(--color13, #eaeaea)" d="M4.986 24.521v0 0 0z"></path>
<path fill="#eaeaea" style="fill: var(--color13, #eaeaea)" d="M4.986 24.521v0 0 0 0z"></path>
<path fill="#feb5be" style="fill: var(--color14, #feb5be)" d="M5.593 23.729v-0.439h-1.214v0.439c0 0-0.261 0.125-0.55 0.196 0.161 0.375 0.6 0.643 1.114 0.643 0.521 0 0.964-0.275 1.121-0.654-0.261-0.064-0.471-0.186-0.471-0.186z"></path>
<path fill="#feb5be" style="fill: var(--color14, #feb5be)" opacity="0.3" d="M5.593 23.289v0.214c-0.189 0.143-0.411 0.225-0.607 0.225-0.186 0-0.411-0.089-0.607-0.239v-0.2h1.214z"></path>
<path fill="#feb5be" style="fill: var(--color14, #feb5be)" d="M5.004 23.629v0c-0.421 0-1.054-0.471-1.054-1.054v-0.529c0-0.582 0.471-1.054 1.054-1.054v0c0.582 0 1.054 0.471 1.054 1.054v0.529c0 0.582-0.6 1.054-1.054 1.054z"></path>
<path fill="#feb5be" style="fill: var(--color14, #feb5be)" d="M6.264 22.261c0 0.171-0.071 0.361-0.204 0.361s-0.243-0.139-0.243-0.311c0-0.171 0.107-0.311 0.243-0.311 0.132 0 0.204 0.089 0.204 0.261z"></path>
<path fill="#feb5be" style="fill: var(--color14, #feb5be)" d="M3.682 22.264c0 0.171 0.118 0.357 0.261 0.357s0.246-0.139 0.246-0.311c0-0.171-0.118-0.311-0.261-0.311-0.139 0-0.246 0.093-0.246 0.264z"></path>
<path fill="#3a3aa5" style="fill: var(--color11, #3a3aa5)" d="M3.929 22.361c0 0-0.521-1.293 0.082-1.482 0 0 0.679-0.896 1.532-0.204 0 0 0.254-0.096 0.518 0.146s0 1.475 0 1.475l-0.107-0.004c0 0 0.036-0.207-0.132-0.339-0.146-0.114-0.075-0.361-0.075-0.361s-1.039 0.393-1.611 0.004c0 0 0.082 0.257-0.018 0.379-0.104 0.121-0.086 0.382-0.086 0.382h-0.104z"></path>
<path fill="#6369e4" style="fill: var(--color15, #6369e4)" d="M7.146 29.568c-0.007 0.1-0.093 0.182-0.196 0.182h-4.029c-0.1 0-0.189-0.082-0.193-0.182l-0.168-2.811c-0.007-0.1 0.071-0.182 0.171-0.182h4.429c0.1 0 0.179 0.082 0.171 0.182l-0.186 2.811z"></path>
<path fill="#fff" style="fill: var(--color4, #fff)" opacity="0.4" d="M5.271 28.189c0 0.171-0.139 0.307-0.307 0.307-0.171 0-0.307-0.139-0.307-0.307 0-0.171 0.139-0.307 0.307-0.307 0.171 0 0.307 0.136 0.307 0.307z"></path>
<path fill="#4ca3e9" style="fill: var(--color1, #4ca3e9)" d="M11.768 9.132v-0.514h-0.679v0.514c0 0.032 0.025 0.057 0.057 0.057h0.564c0.029 0 0.057-0.025 0.057-0.057z"></path>
<path fill="#4ca3e9" style="fill: var(--color1, #4ca3e9)" d="M18.011 12.318v0.514h0.679v-0.514c0-0.032-0.025-0.057-0.057-0.057h-0.561c-0.032 0-0.061 0.025-0.061 0.057z"></path>
<path fill="#2f507f" style="fill: var(--color16, #2f507f)" d="M13.086 8.618h-3.279c-0.079 0-0.146-0.064-0.146-0.146v-1.707c0-0.079 0.064-0.146 0.146-0.146h3.279c0.079 0 0.146 0.064 0.146 0.146v1.707c-0.004 0.082-0.068 0.146-0.146 0.146z"></path>
<path fill="#ff8369" style="fill: var(--color17, #ff8369)" d="M10.232 7.296h-0.218c-0.018 0-0.036-0.014-0.036-0.036v-0.146c0-0.018 0.014-0.036 0.036-0.036h0.218c0.018 0 0.036 0.014 0.036 0.036v0.146c0 0.021-0.014 0.036-0.036 0.036z"></path>
<path fill="#ff8369" style="fill: var(--color17, #ff8369)" d="M11.339 7.296h-0.218c-0.018 0-0.036-0.014-0.036-0.036v-0.146c0-0.018 0.014-0.036 0.036-0.036h0.218c0.018 0 0.036 0.014 0.036 0.036v0.146c0 0.021-0.018 0.036-0.036 0.036z"></path>
<path fill="#ffc27f" style="fill: var(--color18, #ffc27f)" d="M10.875 7.296h-0.396c-0.018 0-0.036-0.014-0.036-0.036v-0.146c0-0.018 0.014-0.036 0.036-0.036h0.396c0.018 0 0.036 0.014 0.036 0.036v0.146c0 0.021-0.018 0.036-0.036 0.036z"></path>
<path fill="#ff8369" style="fill: var(--color17, #ff8369)" d="M12.732 7.296h-1.075c-0.018 0-0.036-0.014-0.036-0.036v-0.146c0-0.018 0.014-0.036 0.036-0.036h1.075c0.018 0 0.036 0.014 0.036 0.036v0.146c-0.004 0.021-0.018 0.036-0.036 0.036z"></path>
<path fill="#ffc27f" style="fill: var(--color18, #ffc27f)" d="M10.232 8.189h-0.218c-0.018 0-0.036-0.014-0.036-0.036v-0.146c0-0.018 0.014-0.036 0.036-0.036h0.218c0.018 0 0.036 0.014 0.036 0.036v0.146c0 0.021-0.014 0.036-0.036 0.036z"></path>
<path fill="#ffc27f" style="fill: var(--color18, #ffc27f)" d="M12.875 8.189h-0.218c-0.018 0-0.036-0.014-0.036-0.036v-0.146c0-0.018 0.014-0.036 0.036-0.036h0.218c0.018 0 0.036 0.014 0.036 0.036v0.146c-0.004 0.021-0.018 0.036-0.036 0.036z"></path>
<path fill="#ff8369" style="fill: var(--color17, #ff8369)" d="M10.875 8.189h-0.396c-0.018 0-0.036-0.014-0.036-0.036v-0.146c0-0.018 0.014-0.036 0.036-0.036h0.396c0.018 0 0.036 0.014 0.036 0.036v0.146c0 0.021-0.018 0.036-0.036 0.036z"></path>
<path fill="#ffc27f" style="fill: var(--color18, #ffc27f)" d="M12.339 8.189h-0.932c-0.018 0-0.036-0.014-0.036-0.036v-0.146c0-0.018 0.014-0.036 0.036-0.036h0.932c0.018 0 0.036 0.014 0.036 0.036v0.146c-0.004 0.021-0.018 0.036-0.036 0.036z"></path>
<path fill="#ffc27f" style="fill: var(--color18, #ffc27f)" d="M10.232 7.725h-0.218c-0.018 0-0.036-0.014-0.036-0.036v-0.146c0-0.018 0.014-0.036 0.036-0.036h0.218c0.018 0 0.036 0.014 0.036 0.036v0.146c0 0.021-0.014 0.036-0.036 0.036z"></path>
<path fill="#ff8369" style="fill: var(--color17, #ff8369)" d="M10.661 7.725h-0.218c-0.018 0-0.036-0.014-0.036-0.036v-0.146c0-0.018 0.014-0.036 0.036-0.036h0.218c0.018 0 0.036 0.014 0.036 0.036v0.146c0 0.021-0.018 0.036-0.036 0.036z"></path>
<path fill="#ffc27f" style="fill: var(--color18, #ffc27f)" d="M11.518 7.725h-0.611c-0.018 0-0.036-0.014-0.036-0.036v-0.146c0-0.018 0.014-0.036 0.036-0.036h0.611c0.018 0 0.036 0.014 0.036 0.036v0.146c0 0.021-0.018 0.036-0.036 0.036z"></path>
<path fill="#2f507f" style="fill: var(--color16, #2f507f)" d="M13.086 6.439h-3.279c-0.079 0-0.146-0.064-0.146-0.146v-1.068c0-0.079 0.064-0.146 0.146-0.146h3.279c0.079 0 0.146 0.064 0.146 0.146v1.068c-0.004 0.082-0.068 0.146-0.146 0.146z"></path>
<path fill="#ffc27f" style="fill: var(--color18, #ffc27f)" d="M10.232 6.082h-0.218c-0.018 0-0.036-0.014-0.036-0.036v-0.146c0-0.018 0.014-0.036 0.036-0.036h0.218c0.018 0 0.036 0.014 0.036 0.036v0.146c0 0.021-0.014 0.036-0.036 0.036z"></path>
<path fill="#ffc27f" style="fill: var(--color18, #ffc27f)" d="M12.875 6.082h-0.218c-0.018 0-0.036-0.014-0.036-0.036v-0.146c0-0.018 0.014-0.036 0.036-0.036h0.218c0.018 0 0.036 0.014 0.036 0.036v0.146c-0.004 0.021-0.018 0.036-0.036 0.036z"></path>
<path fill="#ff8369" style="fill: var(--color17, #ff8369)" d="M10.875 6.082h-0.396c-0.018 0-0.036-0.014-0.036-0.036v-0.146c0-0.018 0.014-0.036 0.036-0.036h0.396c0.018 0 0.036 0.014 0.036 0.036v0.146c0 0.021-0.018 0.036-0.036 0.036z"></path>
<path fill="#ffc27f" style="fill: var(--color18, #ffc27f)" d="M12.339 6.082h-0.932c-0.018 0-0.036-0.014-0.036-0.036v-0.146c0-0.018 0.014-0.036 0.036-0.036h0.932c0.018 0 0.036 0.014 0.036 0.036v0.146c-0.004 0.021-0.018 0.036-0.036 0.036z"></path>
<path fill="#ffc27f" style="fill: var(--color18, #ffc27f)" d="M10.232 5.618h-0.218c-0.018 0-0.036-0.014-0.036-0.036v-0.146c0-0.018 0.014-0.036 0.036-0.036h0.218c0.018 0 0.036 0.014 0.036 0.036v0.146c0 0.021-0.014 0.036-0.036 0.036z"></path>
<path fill="#ff8369" style="fill: var(--color17, #ff8369)" d="M10.661 5.618h-0.218c-0.018 0-0.036-0.014-0.036-0.036v-0.146c0-0.018 0.014-0.036 0.036-0.036h0.218c0.018 0 0.036 0.014 0.036 0.036v0.146c0 0.021-0.018 0.036-0.036 0.036z"></path>
<path fill="#ffc27f" style="fill: var(--color18, #ffc27f)" d="M11.518 5.618h-0.611c-0.018 0-0.036-0.014-0.036-0.036v-0.146c0-0.018 0.014-0.036 0.036-0.036h0.611c0.018 0 0.036 0.014 0.036 0.036v0.146c0 0.021-0.018 0.036-0.036 0.036z"></path>
<path fill="#72a3f5" style="fill: var(--color19, #72a3f5)" d="M36.607 6.754v2.411c0 0.093-0.075 0.168-0.168 0.168h-6.696c-0.093 0-0.168-0.075-0.168-0.168v-2.411c0-0.093 0.075-0.168 0.168-0.168h6.696c0.039 0 0.071 0.014 0.1 0.036 0.043 0.029 0.068 0.075 0.068 0.132z"></path>
<path fill="#87b3f4" style="fill: var(--color20, #87b3f4)" d="M36.607 6.754v2.411c0 0.093-0.075 0.168-0.168 0.168h-6.696c-0.093 0-0.168-0.075-0.168-0.168v-0.204c1.604-0.204 4.675-0.782 6.964-2.343 0.043 0.032 0.068 0.079 0.068 0.136z"></path>
<path fill="#ffd683" style="fill: var(--color21, #ffd683)" d="M31.771 7.932c0 0.44-0.357 0.796-0.796 0.796s-0.796-0.357-0.796-0.796c0-0.44 0.357-0.796 0.796-0.796s0.796 0.357 0.796 0.796z"></path>
<path fill="#fff" style="fill: var(--color4, #fff)" d="M35.718 7.575h-3.132c-0.043 0-0.079-0.036-0.079-0.082v0c0-0.046 0.036-0.082 0.079-0.082h3.132c0.043 0 0.079 0.036 0.079 0.082v0c0 0.043-0.036 0.082-0.079 0.082z"></path>
<path fill="#fff" style="fill: var(--color4, #fff)" d="M35.718 8.125h-3.132c-0.043 0-0.079-0.036-0.079-0.082v0c0-0.046 0.036-0.082 0.079-0.082h3.132c0.043 0 0.079 0.036 0.079 0.082v0c0 0.043-0.036 0.082-0.079 0.082z"></path>
<path fill="#fff" style="fill: var(--color4, #fff)" d="M35.014 8.618h-2.5c-0.046 0-0.082-0.036-0.082-0.082v0c0-0.046 0.036-0.082 0.082-0.082h2.5c0.046 0 0.082 0.036 0.082 0.082v0c0 0.046-0.039 0.082-0.082 0.082z"></path>
<path fill="#fff" style="fill: var(--color4, #fff)" d="M33.975 11.975h-4.232c-0.093 0-0.168-0.075-0.168-0.168v-1.45c0-0.093 0.075-0.168 0.168-0.168h4.232c0.093 0 0.168 0.075 0.168 0.168v1.45c0 0.093-0.075 0.168-0.168 0.168z"></path>
<path fill="#ffc27f" style="fill: var(--color18, #ffc27f)" d="M33.793 11.975c0.193 0 0.35-0.157 0.35-0.35v-1.096c0-0.125-0.064-0.236-0.164-0.296-1.454 1.043-3.507 1.368-4.382 1.464 0.032 0.161 0.175 0.279 0.343 0.279h3.854z"></path>
<path fill="#ffda89" style="fill: var(--color22, #ffda89)" d="M31.021 11.082c0 0.289-0.236 0.525-0.525 0.525s-0.525-0.236-0.525-0.525 0.236-0.525 0.525-0.525c0.293-0.004 0.525 0.232 0.525 0.525z"></path>
<path fill="#ffd683" style="fill: var(--color21, #ffd683)" d="M33.568 10.832h-2.036c-0.029 0-0.050-0.025-0.050-0.054v0c0-0.029 0.021-0.054 0.050-0.054h2.036c0.029 0 0.050 0.025 0.050 0.054v0c0 0.029-0.021 0.054-0.050 0.054z"></path>
<path fill="#fff" style="fill: var(--color4, #fff)" d="M33.568 11.189h-2.036c-0.029 0-0.050-0.025-0.050-0.054v0c0-0.029 0.021-0.054 0.050-0.054h2.036c0.029 0 0.050 0.025 0.050 0.054v0c0 0.029-0.021 0.054-0.050 0.054z"></path>
<path fill="#fff" style="fill: var(--color4, #fff)" d="M33.107 11.511h-1.625c-0.029 0-0.054-0.025-0.054-0.054v0c0-0.029 0.025-0.054 0.054-0.054h1.625c0.029 0 0.054 0.025 0.054 0.054v0c0 0.029-0.021 0.054-0.054 0.054z"></path>
<path fill="#fff" style="fill: var(--color4, #fff)" d="M7.518 14.793v2.682c0 0.057-0.046 0.104-0.104 0.104h-7.107c-0.057 0-0.104-0.046-0.104-0.104v-2.682c0-0.057 0.046-0.104 0.104-0.104h7.107c0.018 0 0.036 0.004 0.050 0.014 0.032 0.014 0.054 0.050 0.054 0.089z"></path>
<path fill="#fff" style="fill: var(--color4, #fff)" d="M7.518 14.793v2.682c0 0.057-0.046 0.104-0.104 0.104h-7.107c-0.057 0-0.104-0.046-0.104-0.104v-0.3c1.636-0.204 4.918-0.811 7.264-2.471 0.029 0.014 0.050 0.050 0.050 0.089z"></path>
<path fill="#ffc27f" style="fill: var(--color18, #ffc27f)" d="M2.486 16.132c0 0.464-0.376 0.839-0.839 0.839s-0.839-0.376-0.839-0.839c0-0.464 0.376-0.839 0.839-0.839s0.839 0.376 0.839 0.839z"></path>
<path fill="#ffda89" style="fill: var(--color22, #ffda89)" d="M6.593 15.757h-3.271c-0.046-0.011-0.082-0.046-0.082-0.093v0c0-0.046 0.036-0.082 0.082-0.086h3.271c0.046 0.004 0.082 0.039 0.082 0.086v0c-0.004 0.046-0.039 0.082-0.082 0.093z"></path>
<path fill="#ffd683" style="fill: var(--color21, #ffd683)" d="M6.593 16.293h-3.271c-0.046 0-0.082-0.036-0.082-0.079v0c0-0.046 0.036-0.082 0.082-0.1h3.271c0.046 0.018 0.082 0.054 0.082 0.1v0c-0.004 0.043-0.039 0.079-0.082 0.079z"></path>
<path fill="#fff" style="fill: var(--color4, #fff)" d="M5.779 16.864h-2.457c-0.046-0.021-0.082-0.057-0.082-0.104v0c0-0.046 0.036-0.082 0.082-0.075h2.457c0.046-0.004 0.082 0.032 0.082 0.075v0c0 0.046-0.036 0.082-0.082 0.104z"></path>
<path fill="#fff" style="fill: var(--color4, #fff)" d="M34.657 21.539h-4.164c-0.111 0-0.2-0.089-0.2-0.2v-4.132c0-0.111 0.089-0.2 0.2-0.2h4.164c0.111 0 0.2 0.089 0.2 0.2v4.132c0 0.111-0.089 0.2-0.2 0.2z"></path>
<path fill="#fff" style="fill: var(--color4, #fff)" d="M34.507 21.539c0.193 0 0.35-0.157 0.35-0.35v-3.821c0-0.143-0.086-0.268-0.211-0.321-1.589 2.464-3.325 3.618-4.357 4.129v0.014c0 0.193 0.157 0.35 0.35 0.35h3.868z"></path>
<path fill="#fff" style="fill: var(--color4, #fff)" d="M31.236 19.557c-0.021-0.011-0.039-0.025-0.050-0.046-0.014-0.021-0.018-0.043-0.018-0.064 0-0.025 0.007-0.046 0.021-0.068s0.036-0.036 0.064-0.050l0.757-0.314c0.007-0.004 0.014-0.004 0.018-0.004 0.021 0 0.039 0.011 0.057 0.036s0.025 0.046 0.025 0.071c0 0.032-0.014 0.050-0.039 0.061l-0.657 0.264 0.657 0.279c0.021 0.007 0.032 0.029 0.032 0.057 0 0.025-0.007 0.050-0.021 0.075s-0.032 0.036-0.050 0.036c-0.004 0-0.011 0-0.014-0.004l-0.782-0.329z"></path>
<path fill="#b978be" style="fill: var(--color23, #b978be)" d="M32.354 20.018c-0.018-0.014-0.025-0.032-0.025-0.057 0-0.011 0.004-0.029 0.007-0.046l0.432-1.279c0.007-0.021 0.018-0.039 0.032-0.054s0.032-0.018 0.050-0.018c0.021 0 0.043 0.007 0.057 0.021 0.018 0.014 0.025 0.036 0.025 0.057 0 0.014-0.004 0.029-0.007 0.046l-0.436 1.293c-0.014 0.039-0.039 0.057-0.075 0.057-0.025 0-0.043-0.007-0.061-0.021z"></path>
<path fill="#c882cd" style="fill: var(--color24, #c882cd)" d="M33.182 19.893c-0.018 0-0.036-0.011-0.050-0.036s-0.021-0.046-0.021-0.075c0-0.029 0.011-0.050 0.032-0.057l0.657-0.279-0.654-0.264c-0.029-0.011-0.043-0.032-0.043-0.061 0-0.025 0.007-0.050 0.025-0.071 0.018-0.025 0.036-0.036 0.057-0.036 0.004 0 0.011 0 0.018 0.004l0.757 0.314c0.029 0.011 0.050 0.029 0.064 0.050s0.021 0.043 0.021 0.068c0 0.021-0.007 0.043-0.018 0.064s-0.029 0.036-0.050 0.046l-0.775 0.332c-0.014 0-0.018 0-0.021 0z"></path>
<path fill="#fff" style="fill: var(--color4, #fff)" d="M23.629 11.082h-4.164c-0.111 0-0.2-0.089-0.2-0.2v-4.132c0-0.111 0.089-0.2 0.2-0.2h4.164c0.111 0 0.2 0.089 0.2 0.2v4.132c0 0.107-0.089 0.2-0.2 0.2z"></path>
<path fill="#fff" style="fill: var(--color4, #fff)" d="M23.479 11.046c0.193 0 0.35-0.157 0.35-0.35v-3.821c0-0.143-0.086-0.268-0.211-0.321-1.589 2.464-3.325 3.618-4.357 4.129v0.014c0 0.193 0.157 0.35 0.35 0.35h3.868z"></path>
<path fill="#fff" style="fill: var(--color4, #fff)" d="M20.296 9.761h1.239c0.1 0 0.161-0.114 0.104-0.196l-0.618-0.911c-0.050-0.075-0.157-0.075-0.207 0l-0.618 0.911c-0.061 0.082 0 0.196 0.1 0.196z"></path>
<path fill="#ff8369" style="fill: var(--color17, #ff8369)" d="M21.461 9.761h1.239c0.1 0 0.161-0.114 0.104-0.196l-0.618-0.911c-0.050-0.075-0.157-0.075-0.207 0l-0.618 0.911c-0.064 0.082-0.004 0.196 0.1 0.196z"></path>
<path fill="#ff976e" style="fill: var(--color25, #ff976e)" d="M21.721 8.086c0 0.132-0.107 0.239-0.239 0.239s-0.239-0.107-0.239-0.239c0-0.132 0.107-0.239 0.239-0.239 0.132 0.004 0.239 0.107 0.239 0.239z"></path>
<path fill="#fff" style="fill: var(--color4, #fff)" d="M24.7 10.725l-0.932 0.929c-0.032 0.032-0.089 0.018-0.1-0.029l-0.307-1.239c-0.011-0.043 0.029-0.082 0.071-0.071l1.239 0.311c0.046 0.014 0.061 0.068 0.029 0.1z"></path>
<path fill="#fff" style="fill: var(--color4, #fff)" d="M24.675 11.807l0.171-0.171c0.014-0.014 0.014-0.036 0-0.046l-0.75-0.75c-0.014-0.014-0.036-0.014-0.046 0l-0.171 0.171c-0.014 0.014-0.014 0.036 0 0.046l0.75 0.75c0.014 0.011 0.036 0.011 0.046 0z"></path>
<path fill="#fff" style="fill: var(--color4, #fff)" d="M19.771 18.718v-0.139c0-0.139-0.068-0.196-0.243-0.2v-0.321c0.171-0.004 0.243-0.057 0.243-0.196v-0.146c0-0.271 0.132-0.386 0.461-0.386h0.082v0.246h-0.046c-0.118 0-0.161 0.046-0.161 0.179v0.189c0 0.143-0.1 0.236-0.282 0.254v0.036c0.182 0.021 0.282 0.111 0.282 0.254v0.193c0 0.129 0.043 0.179 0.161 0.179h0.046v0.246h-0.082c-0.325 0.007-0.461-0.107-0.461-0.386z"></path>
<path fill="#ffb612" style="fill: var(--color12, #ffb612)" d="M20.475 18.221v0c0-0.35 0.211-0.564 0.546-0.564 0.304 0 0.504 0.182 0.511 0.439v0.007h-0.325v-0.011c-0.014-0.1-0.079-0.171-0.182-0.171-0.121 0-0.196 0.107-0.196 0.296v0c0 0.189 0.071 0.296 0.196 0.296 0.104 0 0.164-0.068 0.179-0.171l0.004-0.011h0.321v0.007c-0.007 0.25-0.196 0.439-0.507 0.439-0.336 0.007-0.546-0.207-0.546-0.557z"></path>
<path fill="#ffb612" style="fill: var(--color12, #ffb612)" d="M21.711 18.221v0c0-0.354 0.218-0.564 0.554-0.564s0.554 0.211 0.554 0.561v0.004c0 0.357-0.211 0.564-0.554 0.564s-0.554-0.207-0.554-0.564zM22.461 18.221v0c0-0.189-0.079-0.296-0.196-0.296s-0.196 0.107-0.196 0.296v0.004c0 0.189 0.075 0.296 0.196 0.296 0.118-0.004 0.196-0.107 0.196-0.3z"></path>
<path fill="#000" style="fill: var(--color26, #000)" d="M23 18.221v0c0-0.361 0.157-0.564 0.432-0.564 0.154 0 0.271 0.082 0.329 0.214h0.007v-0.543h0.35v1.432h-0.35v-0.186h-0.007c-0.054 0.129-0.171 0.207-0.329 0.207-0.271 0.004-0.432-0.204-0.432-0.561zM23.764 18.221v0c0-0.171-0.082-0.279-0.204-0.279-0.125 0-0.204 0.104-0.204 0.275v0c0 0.171 0.079 0.279 0.204 0.279 0.121 0.004 0.204-0.1 0.204-0.275z"></path>
<path fill="#000" style="fill: var(--color26, #000)" d="M24.336 18.221v0c0-0.35 0.207-0.564 0.536-0.564 0.325 0 0.532 0.214 0.532 0.539v0.104h-0.725c0.004 0.146 0.082 0.232 0.211 0.232 0.114 0 0.175-0.064 0.189-0.111v-0.004h0.318l-0.004 0.011c-0.032 0.15-0.168 0.354-0.514 0.354-0.336 0.004-0.543-0.211-0.543-0.561zM24.686 18.096h0.389c-0.018-0.121-0.093-0.186-0.193-0.186s-0.179 0.068-0.196 0.186z"></path>
<path fill="#000" style="fill: var(--color26, #000)" d="M25.568 19.111v-0.246h0.046c0.118 0 0.161-0.046 0.161-0.179v-0.193c0-0.143 0.104-0.236 0.282-0.254v-0.036c-0.182-0.021-0.282-0.111-0.282-0.254v-0.189c0-0.129-0.043-0.179-0.161-0.179h-0.046v-0.246h0.082c0.329 0 0.457 0.111 0.457 0.386v0.146c0 0.139 0.068 0.196 0.243 0.196v0.321c-0.175 0.004-0.243 0.061-0.243 0.2v0.139c0 0.279-0.132 0.393-0.457 0.393h-0.082z"></path>
</symbol>
</defs>
</svg>
