<svg width="349" height="79" viewBox="0 0 349 79" fill="#086ad9" xmlns="http://www.w3.org/2000/svg">
<path d="M20.2528 23.6875H27.9022C27.6982 20.6782 27.4902 15.8595 27.2715 14.5208C26.6182 10.5475 25.5462 6.41017 22.1422 3.0715C21.3288 2.27417 20.0355 1.16484 18.1942 0.723502C13.7048 -0.349831 10.6035 2.3755 8.9715 8.82083C8.8995 9.10083 8.83417 9.3635 8.76884 9.59817C8.49284 10.5822 8.2355 11.5715 7.97817 12.5608C7.69684 13.6408 7.4155 14.7208 7.1075 15.7942C6.53017 17.8182 7.6995 19.9275 9.72484 20.5075C11.7502 21.0875 13.8595 19.9155 14.4382 17.8902C14.7622 16.7595 15.0582 15.6222 15.3555 14.4835C15.6008 13.5382 15.8475 12.5942 16.1115 11.6528C16.1928 11.3622 16.2742 11.0382 16.3622 10.6902C16.4915 10.1835 16.7075 9.32617 16.9475 8.6595C18.5888 10.3542 19.2222 12.5595 19.7475 15.7542C19.9168 16.7902 20.0862 21.0862 20.2528 23.6875Z" fill="#086ad9"/>
<path d="M46.4885 55.7902C44.3859 55.8822 42.7565 57.6622 42.8499 59.7662C43.0192 63.5862 42.0805 66.0756 40.0619 67.1649C37.9459 68.3049 34.8765 67.7916 33.6925 66.9382C32.2485 65.8942 31.5432 62.5342 31.0765 60.3102L31.0419 60.1462C30.2619 56.4369 29.5712 47.2409 28.9605 37.2716C28.9539 37.1516 28.9459 37.0342 28.9392 36.9156H21.3005C21.3179 37.1889 21.3339 37.4636 21.3512 37.7369C22.0365 48.9609 22.6859 57.4596 23.5805 61.7142L23.6152 61.8769C24.3232 65.2502 25.3939 70.3462 29.2299 73.1182C31.1565 74.5116 34.0819 75.4556 37.1765 75.4556C39.3565 75.4556 41.6232 74.9862 43.6832 73.8742C46.3912 72.4129 50.8725 68.5942 50.4659 59.4289C50.3725 57.3249 48.5459 55.6609 46.4885 55.7902Z" fill="#086ad9"/>
<path d="M65.4841 36.9151C65.4761 37.0377 65.4694 37.1577 65.4614 37.2804C64.8521 47.2471 64.1601 56.4377 63.3814 60.1457L63.3454 60.3097C62.8787 62.5337 62.1747 65.8937 60.7307 66.9377C59.5441 67.7911 56.4747 68.3057 54.3614 67.1644C52.3414 66.0751 51.4027 63.5857 51.5721 59.7671C51.6667 57.6631 50.0374 55.8831 47.9334 55.7897C45.8441 55.6617 44.0494 57.3244 43.9574 59.4284C43.5507 68.5937 48.0334 72.4137 50.7414 73.8751C52.8014 74.9857 55.0654 75.4551 57.2454 75.4551C60.3414 75.4551 63.2654 74.5111 65.1947 73.1177C69.0294 70.3471 70.1001 65.2497 70.8081 61.8764L70.8414 61.7151C71.7361 57.4604 72.3841 48.9671 73.0721 37.7471C73.0894 37.4697 73.1054 37.1924 73.1227 36.9151H65.4841Z" fill="#086ad9"/>
<path d="M87.3147 15.2991C87.008 14.2244 86.7267 13.1418 86.4453 12.0591C86.1867 11.0724 85.9293 10.0858 85.6547 9.1031C85.5893 8.86844 85.524 8.60444 85.452 8.32577C83.8213 1.8791 80.728 -0.844897 76.2293 0.227103C74.3867 0.668436 73.092 1.78044 72.28 2.57644C68.876 5.9151 67.804 10.0511 67.152 14.0244C66.9307 15.3724 66.7227 20.4911 66.5173 23.5444H74.1667C74.3347 20.8938 74.5053 16.3018 74.676 15.2578C75.2 12.0631 75.8333 9.8591 77.476 8.1631C77.716 8.82977 77.932 9.68843 78.0613 10.1951C78.1493 10.5418 78.232 10.8658 78.312 11.1551C78.5747 12.0951 78.82 13.0391 79.0653 13.9831C79.3627 15.1218 79.66 16.2618 79.984 17.3938C80.5627 19.4178 82.6747 20.5884 84.696 20.0111C86.7213 19.4338 87.8933 17.3244 87.3147 15.2991Z" fill="#086ad9"/>
<path d="M52.1318 52.525C51.2558 51.421 49.9211 50.8357 48.5491 50.6424C45.8024 50.2544 42.5518 50.7304 40.9851 53.2837C40.1611 54.625 39.9051 56.3837 40.5091 57.8597C41.0731 59.237 43.1584 60.993 44.7011 59.9397C45.0118 59.7264 45.2064 59.385 45.3878 59.0544C46.0038 57.9384 46.5744 56.7984 47.1811 55.6784C46.8491 56.5224 47.5211 57.7277 47.8824 58.4744C48.5438 59.8384 50.0918 60.4757 51.5371 60.069C54.1171 59.3424 54.0144 56.3917 53.1784 54.3584C52.9118 53.7117 52.5704 53.077 52.1318 52.525Z" fill="#086ad9"/>
<path d="M80.3616 34.6346C80.2509 35.0266 79.9962 35.7679 79.6549 36.7733C78.5016 40.1733 76.3549 46.5026 74.9496 52.8466C73.8562 57.7799 73.0722 62.6973 72.5536 66.4639C72.2936 68.3493 70.6829 69.7466 68.7776 69.7466H44.9242H41.3096H23.4576C21.7762 69.7466 20.3482 68.5093 20.1216 66.8426C19.6042 63.0306 18.8042 57.9479 17.6736 52.8466C16.2682 46.5026 14.1216 40.1733 12.9682 36.7733C12.6282 35.7679 12.3722 35.0266 12.2616 34.6346C12.0856 34.0093 11.8776 33.4119 11.6389 32.8426L44.0589 32.8413L80.9842 32.8426C80.7469 33.4119 80.5376 34.0093 80.3616 34.6346ZM92.6122 28.9839C92.5869 26.8959 90.8882 25.2173 88.8002 25.2173H44.1256H3.38424C1.54024 25.2173 0.038908 26.6999 0.0175746 28.5453L0.000240651 29.8933C-0.0157593 31.3146 0.766909 32.7066 2.09891 33.2026C3.51891 33.7306 4.40157 34.8533 4.92557 36.7066C5.05491 37.1666 5.34691 38.0386 5.74824 39.2213C6.85491 42.4853 8.91491 48.5586 10.2309 54.4959C12.3416 64.0226 13.2776 73.8173 13.2856 73.9146L13.3242 74.3173C13.4869 76.0479 14.9389 77.3706 16.6776 77.3706H41.3096H44.9242H75.5416C77.5096 77.3706 79.1536 75.8733 79.3376 73.9146C79.3469 73.8173 80.2816 64.0226 82.3936 54.4959C83.7082 48.5586 85.7696 42.4853 86.8749 39.2213C87.2762 38.0386 87.5682 37.1666 87.6976 36.7066C88.2056 34.9133 89.0482 33.8053 90.3882 33.2559C91.7842 32.6839 92.6389 31.2586 92.6216 29.7493L92.6122 28.9839Z" fill="#086ad9"/>
<path d="M275.017 49.8921C273.096 49.8921 271.873 49.3855 271.352 48.3721C270.83 47.3441 270.562 45.2881 270.562 42.2041C270.562 39.1801 270.83 37.1535 271.352 36.0948C271.873 35.0535 273.096 34.5308 275.017 34.5308C280.662 34.5308 283.493 37.0935 283.509 42.2041C283.524 47.3295 280.693 49.8921 275.017 49.8921ZM233.994 51.2535C233.606 58.5628 229.401 61.2148 225.973 61.4095C222.609 61.6681 217.628 59.0148 217.174 51.5108C216.656 43.8121 220.928 39.7375 225.714 39.7375C230.308 39.7375 234.448 43.9415 233.994 51.2535ZM336.452 46.0375C335.842 45.8295 334.378 45.3068 332.061 44.4521C329.745 43.5988 327.968 42.9721 326.712 42.5708C322.968 41.4028 321.085 39.9215 321.085 38.0921C321.085 36.2815 322.826 35.3748 326.294 35.3748C328.821 35.3748 331.853 36.1415 335.406 37.6748C338.961 39.1908 341.278 39.9575 342.324 39.9575C345.932 39.9575 346.882 36.2721 346.652 33.2975C346.318 29.0121 343.604 26.5615 339.641 25.2015C335.302 23.7135 330.545 23.4748 325.998 23.4748C321.869 23.4748 318.037 23.9281 314.482 24.8348C310.928 25.7401 307.773 27.4815 305.038 30.0961C303.033 31.9988 301.765 34.2988 301.228 36.9815C300.542 34.5015 299.301 32.1721 297.508 30.3375C296.654 29.4668 295.696 28.7041 294.668 28.0508C289.825 24.9815 283.569 23.4468 275.896 23.4468C270.249 23.4175 265.75 23.8188 262.413 24.6681C257.108 25.8601 254.1 28.9588 253.369 33.9655C252.857 37.5508 252.565 42.4121 252.502 48.5321C252.241 45.4801 251.545 42.4481 250.44 39.4388C248.89 35.3561 243.05 23.3148 225.429 23.4188C211.217 23.4708 204.345 31.2215 201.089 38.5081C198.66 43.8308 198.246 51.4788 199.797 58.1441C201.4 65.2255 205.172 70.7535 211.734 74.1134C218.608 77.6788 225.893 78.2481 233.334 76.4388C242.534 74.2694 248.58 68.5841 251.372 59.5921C251.972 57.6108 252.324 55.6375 252.498 53.6721C252.55 61.5188 252.844 66.3214 253.369 70.2934C253.741 73.0201 254.74 75.0908 256.333 76.4908C257.942 77.8921 259.985 78.5774 262.488 78.5774C268.521 78.6068 271.53 75.1948 271.53 68.3268C271.53 67.0748 271.47 67.1895 271.352 65.6241C271.233 64.0748 271.173 63.2415 271.173 63.1215C271.173 62.0935 271.426 61.3788 271.948 60.9308C272.454 60.5001 273.364 60.2761 274.674 60.2761C274.957 60.2761 275.688 60.3201 276.849 60.4108C278.012 60.5001 279.054 60.5441 279.948 60.5441C287.457 60.5441 292.998 58.8615 296.56 55.4788C298.265 53.8601 299.778 51.8535 300.604 49.6321C301.172 48.1081 301.528 46.4695 301.713 44.8108C303.218 49.0695 306.886 52.4401 312.722 54.9241C316.694 56.6135 319.552 57.7468 321.294 58.2868C325.754 59.6801 327.985 61.1788 327.985 62.7815C327.985 64.6455 326.381 65.5868 323.176 65.5868C320.528 65.5868 318.037 65.1161 315.702 64.1935C313.368 63.2521 311.38 62.3281 309.709 61.4055C308.036 60.4815 306.746 60.0295 305.822 60.0295C304.377 60.0295 302.994 60.4455 301.997 61.5401C300.59 63.0868 299.957 65.4948 300.173 67.5468C300.389 69.6015 301.46 71.3321 302.922 72.7441C303.758 73.5494 304.765 74.2054 305.822 74.6814C309.813 76.4761 316.328 77.3815 325.372 77.3815C327.514 77.3815 329.745 77.1561 332.061 76.7201C334.378 76.2668 336.87 75.5001 339.537 74.4201C342.218 73.3228 344.397 71.5975 346.07 69.2455C347.761 66.8761 348.597 64.0188 348.597 60.6908C348.597 53.6521 344.554 48.7561 336.452 46.0375Z" fill="#086ad9"/>
<path d="M192.14 28.0398C189.276 25.8491 185.764 24.9464 182.31 24.7851C179.629 24.6544 176.893 24.9384 174.365 25.9704C170.754 27.4424 167.441 30.5131 164.917 34.0024C164.51 32.9784 164.021 32.0531 163.428 31.2438C163.385 31.1851 163.337 31.1331 163.285 31.0838C162.36 30.2251 161.57 29.2024 160.565 28.4398C157.641 25.9571 153.888 24.9558 150.241 24.7851C147.56 24.6544 144.825 24.9384 142.296 25.9704C139.964 26.9811 137.784 28.5291 136.086 30.5598C135.518 31.2398 134.325 31.5478 134.273 29.9504C134.202 27.5291 133.285 25.0158 131.4 23.6224C130.44 22.9291 129.369 22.3851 128.24 22.0278C126.036 21.3318 123.569 21.4731 121.445 22.4024C121.06 22.5718 120.684 22.7598 120.32 22.9691C119.452 23.4704 118.676 24.1318 118.112 24.9638C116.732 26.7971 116.43 29.2678 116.412 31.5611C116.43 45.2998 116.334 42.8038 116.441 56.5411C116.484 57.7784 116.489 59.0171 116.529 60.2584C116.534 60.7758 116.541 61.2918 116.56 61.8104C116.52 62.8438 116.54 63.8771 116.638 64.9038C116.637 65.1184 116.638 65.3344 116.644 65.5518C116.724 67.8211 116.574 70.1558 117.166 72.3611C117.186 72.4358 117.226 72.5904 117.246 72.6664C117.377 73.1718 117.538 73.6664 117.736 74.1478C117.765 74.2171 117.8 74.2878 117.838 74.3518C119.089 76.4718 121.292 77.7251 123.566 77.9464C126.246 78.2318 129.168 78.0438 131.482 76.3824C132.997 75.2958 133.885 73.4704 134.312 71.5904C134.988 69.2451 134.601 58.1198 134.59 55.5211C134.652 52.2838 134.453 48.9704 135.289 45.8238C135.694 43.6251 137.085 41.6384 138.994 40.7678C141.524 39.6771 144.682 40.2851 146.616 42.4118C147.958 43.9731 148.313 46.1838 148.448 48.2438C148.469 48.6958 148.478 49.1491 148.493 49.6011C148.501 51.9144 148.492 54.2278 148.509 56.5411C148.516 57.3678 148.548 58.1944 148.56 59.0211C148.54 62.6198 148.532 66.2171 148.737 69.8091C148.805 71.2171 149.092 72.6398 149.724 73.8771C149.77 74.0011 149.798 74.1304 149.85 74.2531C150.977 76.2344 152.928 77.4691 155.006 77.8478C155.378 77.9358 155.75 78.0091 156.122 78.0531C158.576 78.4158 161.252 78.1384 163.334 76.5638C163.381 76.5264 163.417 76.4758 163.462 76.4384C163.492 76.4184 163.524 76.4038 163.552 76.3824C165.065 75.2958 165.954 73.4704 166.381 71.5904C166.52 71.1064 166.612 70.2384 166.673 69.1611C166.709 68.7584 166.749 68.3558 166.76 67.9518C166.754 67.5864 166.76 67.2211 166.756 66.8571C166.8 64.5678 166.77 61.9104 166.732 59.6784C166.741 57.0811 166.761 54.4838 166.778 51.8851C166.786 51.0438 166.789 50.2158 166.788 49.3971C166.88 48.1904 167.046 46.9958 167.358 45.8238C167.764 43.6251 169.154 41.6384 171.064 40.7678C173.593 39.6771 176.752 40.2851 178.685 42.4118C180.028 43.9731 180.382 46.1838 180.517 48.2438C180.837 55.4278 180.396 62.6278 180.806 69.8091C180.888 71.5144 181.262 73.2598 182.221 74.6438C183.584 76.7304 185.92 77.7838 188.192 78.0531C190.645 78.4158 193.322 78.1384 195.402 76.5638C196.966 75.3451 197.992 73.4171 198.416 71.3931C198.669 70.2664 198.797 69.1091 198.829 67.9518C198.76 62.5958 198.812 57.2398 198.846 51.8851C198.929 43.2011 199.39 33.5864 192.14 28.0398Z" fill="#086ad9"/>
<path d="M40.7521 39.4763C40.5667 38.6243 40.0281 37.851 39.1267 37.4283C37.7281 36.7736 36.3067 37.319 35.5134 38.351C35.5654 38.3577 35.6134 38.3536 35.6694 38.367C35.9161 38.4256 36.1254 38.5816 36.3187 38.7443C36.8081 39.155 37.2347 39.6363 37.5854 40.1696C36.8987 40.3163 36.2534 40.5936 35.6094 40.863C35.5081 40.9043 35.2907 41.0163 35.0454 41.123C35.0921 41.259 35.1454 41.3937 35.2161 41.5283C35.8707 42.7803 37.2014 43.5577 38.6254 43.1723C40.1947 42.751 41.0894 41.023 40.7521 39.4763Z" fill="#086ad9"/>
<path d="M54.9162 39.4763C54.7309 38.6243 54.1922 37.851 53.2909 37.4283C51.7695 36.7163 50.2229 37.423 49.4855 38.6337C49.5349 38.671 49.5869 38.7043 49.6349 38.7443C50.1229 39.155 50.5509 39.6363 50.9002 40.1697C50.2815 40.3017 49.6975 40.5417 49.1162 40.7857C49.1722 41.0337 49.2509 41.2817 49.3802 41.5283C50.0349 42.7803 51.3655 43.5577 52.7895 43.1723C54.3589 42.751 55.2535 41.023 54.9162 39.4763Z" fill="#086ad9"/>
</svg>
