<svg width="205" height="86" viewBox="0 0 205 86" fill="none" xmlns="http://www.w3.org/2000/svg">
<path d="M22.6892 31.2606C24.4077 30.3199 25.8771 29.0079 27.1473 27.2998C28.3926 25.5917 29.0153 23.537 29.0153 21.1358C29.0153 17.2988 27.6454 14.2539 24.9058 12.0012C22.1662 9.74849 18.1065 8.63452 12.7269 8.63452C10.7344 8.63452 8.86647 8.73354 7.09815 8.95634C5.35475 9.17913 3.81059 9.50094 2.46567 9.97129C1.69359 10.2436 1.07095 10.5902 0.622645 11.0358C0.224152 11.4813 0 12.125 0 12.9419V40.3456C0 41.3606 0.0996232 42.1775 0.348681 42.7964C0.572834 43.4152 0.921515 43.9103 1.36982 44.2569C1.81812 44.6035 2.39096 44.851 3.06341 44.9748C3.73587 45.0986 4.53286 45.1728 5.42947 45.1728C6.32607 45.1728 7.24759 45.1233 8.1691 44.9996C9.09062 44.8758 9.71326 44.7768 10.2114 44.653V33.4637H13.2748L18.1812 41.3111C18.5299 41.9052 18.9035 42.425 19.302 42.9449C19.7005 43.44 20.1239 43.8856 20.5971 44.2322C21.0703 44.5787 21.6182 44.851 22.2409 45.0491C22.8635 45.2471 23.6107 45.3461 24.4575 45.3461C25.7526 45.3461 26.8983 44.9996 27.9443 44.2817C28.9904 43.5638 29.6877 42.5241 30.0862 41.1625C29.3141 39.801 28.2432 38.291 26.8734 36.6324C25.4786 34.949 24.0839 33.1419 22.6892 31.2606ZM17.3593 24.6262C16.5125 25.3936 15.342 25.7897 13.8476 25.7897H10.2114V17.0017C10.4604 16.9274 10.9835 16.8779 11.3321 16.8284C11.6808 16.7789 12.1291 16.7789 12.702 16.7789C14.7691 16.7789 16.2635 17.1502 17.2348 17.9176C18.1812 18.685 18.6544 19.799 18.6544 21.2843C18.6544 22.7449 18.231 23.8588 17.3593 24.6262Z" fill="#8339B6"/>
<path d="M55.8389 18.3139C54.6185 17.4474 53.1242 16.8038 51.3808 16.3582C49.6374 15.9374 47.7196 15.7146 45.6276 15.7146C44.2577 15.7146 42.8132 15.8136 41.269 16.0117C39.7249 16.2097 38.38 16.5068 37.2592 16.9523C36.2381 17.3732 35.4909 17.893 35.0177 18.4872C34.5196 19.0813 34.2954 19.8982 34.2954 20.9131C34.2954 21.6805 34.4698 22.4232 34.8184 23.1411C35.1671 23.859 35.5905 24.3788 36.1135 24.7502C37.2343 24.2798 38.5045 23.9085 39.9241 23.5867C41.3188 23.2649 42.7634 23.1163 44.2577 23.1163C46.1257 23.1163 47.5951 23.3639 48.5913 23.8342C49.5876 24.3293 50.1106 25.1215 50.1106 26.2602V26.6563L42.4147 27.4732C39.0524 27.8198 36.5618 28.711 34.9679 30.1467C33.3739 31.5825 32.552 33.6372 32.552 36.3107C32.552 37.895 32.8758 39.3061 33.5233 40.4943C34.1709 41.7073 35.0924 42.6975 36.263 43.4649C37.4584 44.2323 38.8781 44.8264 40.5219 45.1978C42.1905 45.5938 44.0336 45.7919 46.1008 45.7919C50.7083 45.7919 54.2699 45.0245 56.8103 43.5144C57.5823 43.0441 58.3046 42.4995 58.8774 41.8558C59.4503 41.2122 59.774 40.3953 59.774 39.3803V26.3592C59.774 24.5274 59.4005 22.9678 58.728 21.6063C58.0805 20.2943 57.0842 19.1803 55.8389 18.3139ZM50.0608 37.8208C49.5627 38.0436 49.0895 38.2416 48.2925 38.3654C47.4955 38.4892 46.7732 38.5634 46.1008 38.5634C44.6562 38.5634 43.6351 38.3159 43.0373 37.8455C42.4396 37.3504 42.1407 36.7316 42.1407 35.9642C42.1407 35.1968 42.4894 34.6026 43.1868 34.2313C43.8841 33.8352 44.7808 33.6124 45.8766 33.5382L50.0857 33.1916V37.8208H50.0608Z" fill="#8339B6"/>
<path d="M70.0357 3.5105C68.3919 3.5105 67.0719 4.0056 66.0756 5.02055C65.0794 6.0355 64.5813 7.27325 64.5813 8.73379C64.5813 10.2191 65.0794 11.4568 66.0756 12.447C67.0719 13.462 68.3919 13.9571 70.0357 13.9571C71.6795 13.9571 72.9995 13.462 73.9957 12.447C74.9919 11.4321 75.49 10.1943 75.49 8.73379C75.49 7.2485 74.9919 6.01075 73.9957 5.02055C72.9995 4.0056 71.6795 3.5105 70.0357 3.5105Z" fill="#8339B6"/>
<path d="M73.5471 17.3484C73.0739 17.0018 72.501 16.779 71.8286 16.6552C71.1561 16.5314 70.384 16.4819 69.5123 16.4819C68.6655 16.4819 67.7689 16.5562 66.947 16.68C66.1002 16.8037 65.5025 16.9275 65.0044 17.0018V40.6675C65.0044 41.633 65.1538 42.4251 65.4029 43.0193C65.6519 43.6134 66.0255 44.0837 66.4987 44.455C66.972 44.8016 67.5448 45.0244 68.2421 45.1482C68.9146 45.272 69.6867 45.3215 70.5584 45.3215C71.4052 45.3215 72.252 45.2472 73.0739 45.1234C73.9207 44.9997 74.7177 44.8759 74.9667 44.8016V21.1359C74.9667 20.1704 74.8671 19.3783 74.618 18.7841C74.3441 18.1653 74.0203 17.6949 73.5471 17.3484Z" fill="#8339B6"/>
<path d="M107.095 7.29758C106.622 6.95101 106.049 6.70346 105.377 6.60444C104.704 6.48066 103.932 6.43115 103.06 6.43115C102.164 6.43115 101.342 6.50542 100.47 6.62919C99.6234 6.75297 98.9012 6.9015 98.6521 7.00052V16.4322C98.154 16.2341 97.5314 16.0856 96.7842 15.9371C96.037 15.8133 95.2649 15.739 94.4679 15.739C92.326 15.739 90.3087 16.0361 88.4657 16.6302C86.6226 17.2243 84.9788 18.1402 83.609 19.4028C82.2143 20.6405 81.1433 22.2001 80.3464 24.0814C79.5743 25.9628 79.1758 28.1908 79.1758 30.7405C79.1758 33.0675 79.5245 35.1469 80.2467 37.0035C80.969 38.8354 82.015 40.4197 83.4098 41.7565C84.8045 43.0685 86.4981 44.0834 88.4906 44.7766C90.5079 45.4697 92.7744 45.8163 95.3147 45.8163C97.6559 45.8163 99.7231 45.544 101.516 44.9746C103.31 44.4053 104.829 43.7616 105.95 43.019C107.668 41.9298 108.565 40.4692 108.565 38.6621V11.0603C108.565 10.0949 108.39 9.30273 108.166 8.70861C107.942 8.11449 107.543 7.64415 107.095 7.29758ZM98.6272 36.954C98.3782 37.2263 97.8551 37.4739 97.3072 37.6719C96.7344 37.8947 96.1117 37.9937 95.3895 37.9937C93.397 37.9937 91.8777 37.3749 90.8317 36.1619C89.7857 34.9489 89.2377 33.117 89.2377 30.7158C89.2377 28.265 89.8106 26.4579 90.9313 25.2449C92.0521 24.0319 93.6959 23.4378 95.8129 23.4378C96.9087 23.4378 97.88 23.6606 98.6272 24.1309V36.954Z" fill="#8339B6"/>
<path d="M140.269 17.3484C139.796 17.0018 139.223 16.779 138.551 16.6552C137.878 16.5314 137.106 16.4819 136.235 16.4819C135.338 16.4819 134.466 16.5314 133.619 16.6552C132.773 16.779 132.25 16.878 131.752 17.0018V37.3504C131.502 37.4989 131.004 37.6474 130.456 37.8207C129.884 37.9692 129.161 38.0435 128.265 38.0435C126.77 38.0435 125.699 37.6969 124.902 37.0285C124.13 36.3602 123.782 35.2214 123.782 33.6371V21.1359C123.782 20.1704 123.607 19.3783 123.358 18.7841C123.109 18.19 122.736 17.7197 122.262 17.3484C121.789 17.0018 121.216 16.779 120.519 16.6552C119.847 16.5314 119.05 16.4819 118.203 16.4819C117.306 16.4819 116.459 16.5314 115.637 16.6552C114.791 16.779 114.068 16.878 113.819 17.0018V33.6371C113.819 35.8156 114.143 37.6722 114.84 39.1822C115.538 40.717 116.534 41.9548 117.804 42.945C119.099 43.9104 120.619 44.6283 122.387 45.0987C124.155 45.569 126.098 45.7918 128.215 45.7918C130.432 45.7918 132.499 45.569 134.392 45.1234C136.284 44.6778 137.903 44.0342 139.273 43.1678C140.917 42.2023 141.714 40.7418 141.714 38.8109V21.1359C141.714 20.1704 141.589 19.3783 141.34 18.7841C141.091 18.1653 140.743 17.6949 140.269 17.3484Z" fill="#8339B6"/>
<path d="M171.401 18.7591C170.156 17.8679 168.612 17.15 166.819 16.5807C165 16.0113 162.983 15.739 160.767 15.739C158.575 15.739 156.557 16.0113 154.714 16.5807C152.871 17.15 151.253 17.9917 149.908 19.1304C148.563 20.2692 147.517 21.7297 146.745 23.4626C145.972 25.1954 145.599 27.2748 145.599 29.6265C145.599 32.0278 145.948 34.1072 146.67 35.84C147.392 37.5729 148.339 39.0087 149.534 40.1227C150.729 41.2366 152.099 42.0535 153.693 42.5734C155.262 43.0932 156.856 43.3656 158.6 43.3656C160.891 43.3656 162.859 43.019 164.353 42.3258V43.2665C164.353 44.8261 163.805 45.9401 162.56 46.6332C161.314 47.3263 159.671 47.6729 157.579 47.6729C156.059 47.6729 154.615 47.4501 153.17 47.0293C151.751 46.6085 150.48 46.0886 149.36 45.4697C148.886 45.8163 148.488 46.3361 148.114 47.0045C147.741 47.6729 147.566 48.4651 147.566 49.3563C147.566 51.4852 148.588 53.02 150.605 53.9854C152.622 54.9261 155.412 55.4212 158.973 55.4212C161.04 55.4212 162.983 55.1984 164.801 54.7281C166.619 54.2577 168.188 53.5398 169.533 52.5496C170.878 51.5594 171.899 50.3217 172.696 48.8364C173.468 47.3511 173.842 45.5687 173.842 43.5141V23.116C173.842 22.0763 173.668 21.2099 173.219 20.5662C172.746 19.8978 172.173 19.279 171.401 18.7591ZM164.378 34.8498C163.382 35.5925 162.161 35.9638 160.567 35.9638C159.073 35.9638 157.877 35.4687 156.906 34.4785C155.96 33.4883 155.462 31.8792 155.462 29.6265C155.462 27.6462 155.935 26.1361 156.906 25.0716C157.853 24.0072 159.297 23.4626 161.215 23.4626C161.987 23.4626 162.659 23.5368 163.182 23.6854C163.705 23.8339 164.129 23.9824 164.378 24.1557V34.8498Z" fill="#8339B6"/>
<path d="M203.929 21.631C203.256 20.2943 202.285 19.1803 201.065 18.3139C199.844 17.4474 198.35 16.8038 196.607 16.3582C194.863 15.9374 192.945 15.7146 190.828 15.7146C189.459 15.7146 188.014 15.8136 186.47 16.0117C184.926 16.2097 183.581 16.5068 182.46 16.9523C181.439 17.3732 180.692 17.893 180.219 18.4872C179.72 19.0813 179.496 19.8982 179.496 20.9131C179.496 21.6805 179.671 22.4232 180.019 23.1411C180.368 23.859 180.791 24.3788 181.314 24.7502C182.435 24.2798 183.705 23.9085 185.125 23.5867C186.52 23.2649 187.964 23.1163 189.459 23.1163C191.327 23.1163 192.796 23.3639 193.792 23.8342C194.788 24.3293 195.312 25.1215 195.312 26.2602V26.6563L187.616 27.4732C184.253 27.8198 181.763 28.711 180.169 30.1467C178.575 31.5825 177.753 33.6372 177.753 36.3107C177.753 37.895 178.077 39.3061 178.724 40.4943C179.372 41.7073 180.293 42.6975 181.464 43.4649C182.659 44.2323 184.079 44.8264 185.748 45.1978C187.416 45.5938 189.259 45.7919 191.327 45.7919C195.934 45.7919 199.496 45.0245 202.036 43.5144C202.808 43.0441 203.53 42.4995 204.103 41.8558C204.676 41.2122 205 40.3953 205 39.3803V26.3592C204.975 24.5521 204.601 22.9678 203.929 21.631ZM195.262 37.8208C194.764 38.0436 194.29 38.2416 193.493 38.3654C192.696 38.4892 191.974 38.5634 191.302 38.5634C189.857 38.5634 188.836 38.3159 188.238 37.8455C187.641 37.3504 187.342 36.7316 187.342 35.9642C187.342 35.1968 187.69 34.6026 188.388 34.2313C189.085 33.8352 189.982 33.6124 191.078 33.5382L195.287 33.1916V37.8208H195.262Z" fill="#8339B6"/>
<path d="M114.343 3.21334C114.343 2.743 114.592 2.44594 115.065 2.37167C115.663 2.27265 116.36 2.22314 117.132 2.22314C119.274 2.22314 120.345 2.99055 120.345 4.52536C120.345 4.92144 120.245 5.268 120.021 5.61457C119.822 5.96114 119.523 6.20869 119.174 6.35722C119.672 6.50575 120.046 6.7533 120.345 7.12463C120.619 7.49595 120.768 7.91679 120.768 8.41188C120.768 10.1942 119.598 11.1102 117.232 11.1102C116.385 11.1102 115.663 11.0607 115.065 10.9616C114.592 10.8874 114.343 10.6151 114.343 10.1447V3.21334ZM115.812 3.53516V5.96114H117.107C118.203 5.96114 118.776 5.51555 118.776 4.64913C118.776 3.85697 118.178 3.46089 116.983 3.46089C116.609 3.46089 116.21 3.48565 115.812 3.53516ZM115.812 7.12463V9.77341C116.21 9.82292 116.709 9.84767 117.281 9.84767C117.904 9.84767 118.377 9.74865 118.701 9.52586C119.025 9.30306 119.174 8.95649 119.174 8.46139C119.174 7.57022 118.527 7.12463 117.257 7.12463H115.812Z" fill="#8339B6"/>
<path d="M124.18 4.35202C123.732 4.92138 123.508 5.68879 123.508 6.62948C123.508 7.61968 123.757 8.38708 124.23 8.95644C124.704 9.52581 125.326 9.79811 126.073 9.79811C126.671 9.79811 127.269 9.62483 127.891 9.2535C128.315 9.00595 128.639 9.03071 128.863 9.35252C128.962 9.50105 129.012 9.67434 128.962 9.87238C128.913 10.0704 128.788 10.2685 128.564 10.417C127.891 10.9121 127.02 11.1596 125.949 11.1596C124.604 11.1596 123.608 10.7636 122.935 9.94664C122.263 9.12973 121.914 8.04051 121.914 6.65423C121.914 5.29271 122.288 4.17874 123.01 3.38658C123.732 2.56966 124.728 2.17358 126.024 2.17358C127.045 2.17358 127.817 2.37162 128.39 2.7677C128.763 3.01525 128.863 3.33707 128.688 3.68364C128.539 4.00545 128.215 4.07972 127.717 3.88168C127.094 3.63413 126.547 3.53511 126.048 3.53511C125.251 3.51035 124.629 3.78266 124.18 4.35202Z" fill="#8339B6"/>
<path d="M130.332 3.06462C130.332 2.84183 130.407 2.64379 130.532 2.49526C130.656 2.34673 130.855 2.27246 131.104 2.27246H135.413C135.637 2.27246 135.812 2.32197 135.936 2.44575C136.061 2.56952 136.135 2.74281 136.135 2.94084C136.135 3.13888 136.061 3.31217 135.936 3.43594C135.812 3.55972 135.637 3.60923 135.413 3.60923H131.852V5.83718H134.691C134.915 5.83718 135.089 5.88669 135.239 6.01046C135.363 6.13424 135.438 6.28276 135.438 6.50556C135.438 6.7036 135.363 6.87688 135.239 7.00066C135.114 7.12443 134.915 7.1987 134.691 7.1987H131.852V9.64944H135.538C135.762 9.64944 135.936 9.69895 136.061 9.82272C136.185 9.9465 136.26 10.1198 136.26 10.3178C136.26 10.5159 136.185 10.6891 136.061 10.8129C135.936 10.9367 135.762 10.9862 135.538 10.9862H131.104C130.855 10.9862 130.656 10.9119 130.532 10.7634C130.382 10.6149 130.332 10.4168 130.332 10.194V3.06462Z" fill="#8339B6"/>
<path d="M146.92 11.011H141.217V12.1002C141.217 12.323 141.167 12.521 141.042 12.6695C140.918 12.8181 140.743 12.8923 140.494 12.8923C140.245 12.8923 140.071 12.8181 139.946 12.6695C139.822 12.521 139.772 12.3477 139.772 12.1002V10.4168C139.772 10.194 139.822 10.0208 139.946 9.87223C140.071 9.7237 140.245 9.67419 140.469 9.67419H140.843C141.391 8.60973 141.715 6.40654 141.789 3.06462C141.789 2.54477 142.038 2.27246 142.512 2.27246H146.447C146.696 2.27246 146.895 2.34673 147.02 2.49526C147.144 2.64379 147.219 2.81707 147.219 3.03986V9.67419H147.667C147.891 9.67419 148.066 9.74846 148.19 9.87223C148.315 10.0208 148.364 10.194 148.364 10.4168V12.1002C148.364 12.323 148.315 12.521 148.19 12.6695C148.066 12.8181 147.891 12.8923 147.642 12.8923C147.393 12.8923 147.219 12.8181 147.094 12.6695C146.97 12.521 146.92 12.3477 146.92 12.1002V11.011ZM145.7 9.67419V3.63398H143.234C143.184 6.30752 142.91 8.31267 142.362 9.67419H145.7Z" fill="#8339B6"/>
<path d="M155.412 2.27246C155.661 2.27246 155.86 2.34673 155.985 2.49526C156.109 2.64379 156.184 2.84182 156.184 3.06462V10.2683C156.184 10.4911 156.109 10.6891 155.985 10.8377C155.86 10.9862 155.661 11.0605 155.412 11.0605C155.163 11.0605 154.964 10.9862 154.839 10.8377C154.715 10.6891 154.64 10.5159 154.64 10.2683V3.63398H152.274C152.224 6.05997 152.025 7.91659 151.676 9.15434C151.527 9.7237 151.278 10.194 150.929 10.5406C150.605 10.9119 150.182 11.0852 149.709 11.0852C149.36 11.0852 149.086 10.9862 148.912 10.7882C148.737 10.5901 148.687 10.3673 148.762 10.095C148.837 9.79797 149.086 9.64944 149.509 9.64944C149.883 9.64944 150.132 9.37713 150.306 8.80777C150.63 7.79282 150.804 5.88668 150.854 3.06462C150.854 2.81707 150.929 2.61903 151.053 2.49526C151.178 2.34673 151.352 2.29722 151.576 2.29722H155.412V2.27246Z" fill="#8339B6"/>
<path d="M163.233 2.37135C163.706 2.49512 163.955 2.79218 163.955 3.26252V10.2434C163.955 10.4662 163.88 10.6643 163.756 10.8128C163.631 10.9613 163.432 11.0356 163.183 11.0356C162.934 11.0356 162.759 10.9613 162.61 10.8128C162.485 10.6643 162.411 10.491 162.411 10.2434V7.74317C162.236 7.76793 161.987 7.79268 161.713 7.79268C161.464 7.79268 161.265 7.76793 161.091 7.74317L159.472 10.4415C159.322 10.7138 159.123 10.8871 158.924 10.9861C158.725 11.0851 158.476 11.0603 158.227 10.9118C158.052 10.8128 157.953 10.6395 157.928 10.4415C157.903 10.2434 157.953 9.99587 158.127 9.69881L159.571 7.49562C158.55 7.09954 158.027 6.30738 158.027 5.09439C158.027 4.17846 158.326 3.46056 158.949 2.96546C159.571 2.47037 160.418 2.22282 161.564 2.22282C162.261 2.19806 162.809 2.27233 163.233 2.37135ZM160.144 3.93091C159.82 4.17846 159.646 4.57454 159.646 5.09439C159.646 6.10934 160.294 6.6292 161.564 6.6292C161.937 6.6292 162.211 6.60444 162.386 6.57969V3.60909C162.037 3.58434 161.713 3.55958 161.464 3.55958C160.916 3.55958 160.468 3.68336 160.144 3.93091Z" fill="#8339B6"/>
<path d="M175.238 11.011H169.534V12.1002C169.534 12.323 169.484 12.521 169.36 12.6695C169.235 12.8181 169.061 12.8923 168.812 12.8923C168.563 12.8923 168.388 12.8181 168.264 12.6695C168.139 12.521 168.09 12.3477 168.09 12.1002V10.4168C168.09 10.194 168.139 10.0208 168.264 9.87223C168.388 9.7237 168.563 9.67419 168.762 9.67419H169.136C169.684 8.60973 170.007 6.40654 170.082 3.06462C170.082 2.54477 170.331 2.27246 170.804 2.27246H174.739C174.988 2.27246 175.188 2.34673 175.312 2.49526C175.437 2.64379 175.512 2.81707 175.512 3.03986V9.67419H175.96C176.184 9.67419 176.358 9.74846 176.458 9.87223C176.582 10.0208 176.632 10.194 176.632 10.4168V12.1002C176.632 12.323 176.582 12.521 176.458 12.6695C176.333 12.8181 176.159 12.8923 175.91 12.8923C175.661 12.8923 175.487 12.8181 175.362 12.6695C175.238 12.521 175.188 12.3477 175.188 12.1002V11.011H175.238ZM174.017 9.67419V3.63398H171.551C171.502 6.30752 171.228 8.31267 170.68 9.67419H174.017Z" fill="#8339B6"/>
<path d="M178.101 3.06462C178.101 2.84183 178.176 2.64379 178.301 2.49526C178.425 2.34673 178.624 2.27246 178.873 2.27246C179.122 2.27246 179.297 2.34673 179.446 2.49526C179.571 2.64379 179.645 2.84183 179.645 3.06462V10.2683C179.645 10.4911 179.571 10.6891 179.446 10.8377C179.322 10.9862 179.122 11.0605 178.873 11.0605C178.624 11.0605 178.425 10.9862 178.301 10.8377C178.176 10.6891 178.101 10.5159 178.101 10.2683V3.06462Z" fill="#8339B6"/>
<path d="M187.416 2.27246C187.64 2.27246 187.815 2.32197 187.964 2.44575C188.089 2.56952 188.163 2.71805 188.163 2.94084C188.163 3.13888 188.089 3.31217 187.964 3.43594C187.84 3.55972 187.64 3.63398 187.416 3.63398H185.15V10.2683C185.15 10.4911 185.075 10.6891 184.951 10.8377C184.826 10.9862 184.627 11.0605 184.378 11.0605C184.129 11.0605 183.929 10.9862 183.805 10.8377C183.68 10.6891 183.606 10.5159 183.606 10.2683V3.63398H181.339C181.115 3.63398 180.941 3.55972 180.816 3.43594C180.692 3.31217 180.617 3.13888 180.617 2.94084C180.617 2.71805 180.692 2.56952 180.816 2.44575C180.941 2.32197 181.115 2.27246 181.339 2.27246H187.416Z" fill="#8339B6"/>
<path d="M189.185 3.06462C189.185 2.84183 189.26 2.64379 189.384 2.49526C189.509 2.34673 189.708 2.27246 189.957 2.27246H194.266C194.49 2.27246 194.664 2.32197 194.789 2.44575C194.913 2.56952 194.988 2.74281 194.988 2.94084C194.988 3.13888 194.913 3.31217 194.789 3.43594C194.664 3.55972 194.49 3.60923 194.266 3.60923H190.704V5.83718H193.543C193.767 5.83718 193.942 5.88669 194.091 6.01046C194.216 6.13424 194.291 6.28276 194.291 6.50556C194.291 6.7036 194.216 6.87688 194.091 7.00066C193.967 7.12443 193.767 7.1987 193.543 7.1987H190.704V9.64944H194.39C194.614 9.64944 194.789 9.69895 194.913 9.82272C195.038 9.9465 195.112 10.1198 195.112 10.3178C195.112 10.5159 195.038 10.6891 194.913 10.8129C194.789 10.9367 194.614 10.9862 194.39 10.9862H189.957C189.708 10.9862 189.509 10.9119 189.384 10.7634C189.235 10.6149 189.185 10.4168 189.185 10.194V3.06462Z" fill="#8339B6"/>
<path d="M197.876 8.36223L202.011 2.69334C202.235 2.39628 202.459 2.27251 202.758 2.27251C203.231 2.27251 203.48 2.54481 203.48 3.06466V10.2684C203.48 10.4912 203.406 10.6892 203.281 10.8377C203.156 10.9863 202.957 11.0605 202.708 11.0605C202.459 11.0605 202.26 10.9863 202.135 10.8377C202.011 10.6892 201.936 10.5159 201.936 10.2931V4.94604L197.777 10.5902C197.553 10.8872 197.304 11.0358 197.055 11.0358C196.83 11.0358 196.656 10.9615 196.507 10.8377C196.382 10.7139 196.307 10.5159 196.307 10.2684V3.06466C196.307 2.84187 196.382 2.64383 196.507 2.4953C196.631 2.34677 196.83 2.27251 197.079 2.27251C197.329 2.27251 197.528 2.34677 197.652 2.4953C197.777 2.64383 197.852 2.84187 197.852 3.06466V8.36223H197.876ZM198.624 1.48035C198.275 1.33182 198.001 1.13378 197.827 0.910983C197.602 0.613923 197.602 0.341619 197.827 0.143579C198.051 -0.0792158 198.325 -0.0297059 198.649 0.267354C198.972 0.589168 199.371 0.737698 199.844 0.737698C200.292 0.737698 200.691 0.589168 201.015 0.267354C201.313 -0.0297059 201.587 -0.0792159 201.836 0.118824C202.061 0.316864 202.061 0.564413 201.812 0.886228C201.637 1.13378 201.388 1.30706 201.039 1.48035C200.691 1.62888 200.292 1.70314 199.819 1.70314C199.396 1.70314 198.997 1.62888 198.624 1.48035Z" fill="#8339B6"/>
<path d="M107.444 45.3956C106.124 46.262 104.455 47.0047 102.388 47.6483C100.321 48.2919 97.9548 48.6138 95.3397 48.6138C92.5004 48.6138 89.8853 48.2177 87.5691 47.4008C85.1781 46.5591 83.111 45.3461 81.4423 43.737C81.1185 43.4152 80.7947 43.0934 80.4958 42.7468V71.6606C80.4958 79.0128 86.6725 84.9788 94.2937 84.9788C101.915 84.9788 108.091 79.0128 108.091 71.6606V44.95C107.867 45.0985 107.668 45.2471 107.444 45.3956Z" fill="#FFD100"/>
<path d="M140.642 45.3956C139.322 46.262 137.654 47.0047 135.587 47.6483C133.519 48.2919 131.153 48.6138 128.538 48.6138C125.699 48.6138 123.084 48.2177 120.768 47.4008C118.377 46.5591 116.309 45.3461 114.641 43.737C114.317 43.4152 113.993 43.0934 113.694 42.7468V71.6606C113.694 79.0128 119.871 84.9788 127.492 84.9788C135.113 84.9788 141.29 79.0128 141.29 71.6606V44.95C141.066 45.0985 140.867 45.2471 140.642 45.3956Z" fill="#43C1E6"/>
<path d="M204.003 45.3956C202.683 46.262 201.015 47.0047 198.948 47.6483C196.88 48.2919 194.514 48.6138 191.899 48.6138C189.06 48.6138 186.445 48.2177 184.129 47.4008C181.738 46.5591 179.671 45.3461 178.002 43.737C177.678 43.4152 177.354 43.0934 177.055 42.7468V71.6606C177.055 79.0128 183.232 84.9788 190.853 84.9788C198.474 84.9788 204.651 79.0128 204.651 71.6606V44.95C204.427 45.0985 204.228 45.2471 204.003 45.3956Z" fill="#74B734"/>
<path d="M171.253 54.8026C169.609 56.0156 167.691 56.9068 165.524 57.4514C163.482 57.9713 161.29 58.2436 158.999 58.2436C154.989 58.2436 151.851 57.699 149.41 56.5355C148.015 55.8919 146.92 54.9759 146.123 53.8867V71.7103C146.123 79.0625 152.299 85.0285 159.92 85.0285C167.542 85.0285 173.718 79.0625 173.718 71.7103V52.4509C172.996 53.3174 172.174 54.1095 171.253 54.8026Z" fill="#E31E25"/>
<path d="M93.6216 75.3C93.4721 74.6564 93.1982 74.1118 92.7997 73.7405C92.7 73.6414 92.6004 73.5672 92.5008 73.5177C92.0774 73.2454 91.5544 73.1216 90.9068 73.2454C90.2344 73.3691 89.6117 73.6909 89.263 74.2851C89.1883 74.3841 89.1385 74.5079 89.1136 74.6316C88.9144 75.1515 88.9144 75.7456 89.0638 76.3892C89.263 77.2557 89.7612 77.924 90.334 78.2954C90.857 78.6419 91.5295 78.8152 92.1272 78.6172C92.6004 78.4687 93.0487 78.0973 93.3476 77.5775C93.6963 76.9834 93.8457 76.1912 93.6216 75.3Z" fill="white"/>
<path d="M100.097 74.2851C99.7478 73.6909 99.1252 73.3691 98.4527 73.2454C97.8052 73.1216 97.2821 73.2454 96.8587 73.5177C96.7591 73.5919 96.6595 73.6662 96.5599 73.7405C96.1614 74.1118 95.8874 74.6564 95.738 75.3C95.5138 76.216 95.6633 77.0081 96.012 77.5775C96.3108 78.0973 96.7591 78.4687 97.2323 78.6172C97.8301 78.8152 98.5025 78.6419 99.0256 78.2954C99.5984 77.8993 100.097 77.2557 100.296 76.3892C100.445 75.7704 100.445 75.1515 100.246 74.6316C100.221 74.4831 100.171 74.3841 100.097 74.2851Z" fill="white"/>
<path d="M97.8057 65.0514C98.0299 65.3979 98.0299 66.2148 98.4782 66.2396C99.051 66.2643 99.9476 65.6702 99.848 64.8533C99.7982 64.5067 99.2751 63.0957 98.4533 62.9967C97.2329 62.8729 96.4857 64.1107 96.7846 64.581C97.1831 65.2989 97.4321 64.4572 97.8057 65.0514Z" fill="white"/>
<path d="M91.9287 65.175C91.9037 65.175 91.9037 65.175 91.8788 65.1502C91.8788 65.1502 91.8539 65.175 91.829 65.2245C91.7792 65.2988 91.7294 65.472 91.7045 65.6206C91.6049 66.0167 91.4554 66.5613 90.9075 66.586H90.8577C90.8079 66.586 90.7581 66.5613 90.7083 66.5613V66.586C90.6585 66.7345 90.6335 66.8831 90.6086 67.0316C90.5837 67.1801 90.5837 67.3534 90.5837 67.502C90.5837 67.5762 90.5837 67.6257 90.5837 67.7C90.6086 67.9723 90.6335 68.2446 90.7332 68.4922C90.8826 68.9873 91.1566 69.4328 91.5551 69.8042C91.7294 69.9527 91.9037 70.1012 92.1279 70.225C92.4019 70.3735 92.7007 70.5221 93.0494 70.6211C93.3981 70.7201 93.7717 70.7944 94.1951 70.8191C94.3445 70.8191 94.494 70.8439 94.6683 70.8439C95.2162 70.8439 95.7143 70.7696 96.1626 70.6706C96.586 70.5468 96.9596 70.3983 97.2834 70.2002C97.4577 70.1012 97.6072 69.9775 97.7566 69.8289C98.1551 69.4576 98.4291 69.012 98.5785 68.5169C98.6532 68.2694 98.703 67.9971 98.7279 67.7247C98.7279 67.6505 98.7279 67.601 98.7279 67.5267C98.7279 67.3782 98.7279 67.2049 98.703 67.0564C98.6781 66.9078 98.6532 66.7593 98.6034 66.6108C98.5785 66.6108 98.5536 66.6108 98.5536 66.6108H98.5038C97.9559 66.586 97.8064 66.0414 97.7068 65.6453C97.657 65.4968 97.6321 65.3483 97.5823 65.2493C97.5574 65.1997 97.5325 65.1997 97.5325 65.175C97.5325 65.175 97.5075 65.1997 97.4826 65.1997C97.4079 65.2245 97.3083 65.2493 97.2087 65.2493C96.8102 65.2493 96.6109 64.9027 96.5362 64.8037C96.4117 64.5809 96.3868 64.2838 96.5113 63.9867C96.3619 63.9125 96.2125 63.8382 96.063 63.7887C95.6396 63.6402 95.1913 63.5659 94.6932 63.5659C94.5438 63.5659 94.4192 63.5659 94.2947 63.5907C93.9211 63.6154 93.5724 63.7144 93.2736 63.8135C93.1739 63.863 93.0743 63.8877 92.9747 63.9372C93.0992 64.2591 93.0992 64.5561 92.9498 64.7789C92.8751 64.8779 92.6758 65.2245 92.2773 65.2245C92.103 65.2245 92.0034 65.1997 91.9287 65.175ZM96.063 66.6108C96.2872 66.6108 96.4615 66.7841 96.4615 67.0069C96.4615 67.2297 96.2872 67.4029 96.063 67.4029C95.8389 67.4029 95.6645 67.2297 95.6645 67.0069C95.6645 66.7841 95.8389 66.6108 96.063 66.6108ZM93.7966 68.0961C93.7966 67.8238 94.1204 67.601 94.4939 67.601C94.8924 67.601 95.1913 67.8238 95.1913 68.0961C95.1913 68.3436 94.9423 68.6407 94.5936 68.6902V68.7149C94.6185 69.0615 94.8177 69.2843 95.1166 69.2843C95.3906 69.2843 95.6147 69.0863 95.6396 68.7892C95.6396 68.715 95.6894 68.6654 95.7392 68.6654H95.7641L95.814 68.6902C95.8389 68.7149 95.8389 68.7397 95.8389 68.7892C95.789 69.1853 95.4902 69.4824 95.1166 69.4824C94.8426 69.4824 94.5936 69.3338 94.4939 69.0615C94.3694 69.3338 94.1453 69.4824 93.8713 69.4824C93.4977 69.4824 93.1739 69.1853 93.149 68.7892C93.149 68.7645 93.149 68.7149 93.1739 68.6902L93.1988 68.6654L93.2487 68.6407C93.2985 68.6407 93.3483 68.6902 93.3483 68.7645C93.3732 69.0368 93.5973 69.2596 93.8713 69.2596C94.1702 69.2596 94.3694 69.0368 94.3943 68.6902V68.6654V68.6407C94.0705 68.6407 93.7966 68.3436 93.7966 68.0961ZM93.0245 66.6108C93.2487 66.6108 93.423 66.7841 93.423 67.0069C93.423 67.2297 93.2487 67.4029 93.0245 67.4029C92.8004 67.4029 92.626 67.2297 92.626 67.0069C92.626 66.7841 92.8004 66.6108 93.0245 66.6108Z" fill="white"/>
<path d="M90.8823 66.2647C91.3307 66.24 91.3307 65.4231 91.5548 65.0765C91.9284 64.4576 92.1525 65.2993 92.5759 64.6062C92.8748 64.1358 92.1027 62.8981 90.9073 63.0218C90.0854 63.1209 89.5623 64.5071 89.5125 64.8785C89.4129 65.6954 90.3095 66.2895 90.8823 66.2647Z" fill="white"/>
<path d="M95.4147 75.2006C95.589 74.4827 95.9128 73.8886 96.3362 73.4678C96.4358 73.3688 96.5603 73.2697 96.6848 73.1955C97.0584 72.9479 97.5067 72.8241 97.9799 72.8241C98.0547 72.8241 98.1543 72.8489 98.229 72.8489C98.2539 72.7251 98.2788 72.6509 98.229 72.5271C98.0547 72.032 97.706 71.7844 97.3822 71.5369C97.1331 71.3388 96.8094 71.1161 96.7097 70.7695C96.5354 70.8437 96.3611 70.8933 96.1618 70.9428C95.6886 71.0665 95.1407 71.1408 94.5679 71.1408C94.3935 71.1408 94.2441 71.1408 94.0697 71.1161C93.6463 71.0913 93.2229 71.017 92.8743 70.918C92.6999 70.8685 92.5256 70.7942 92.3512 70.72C92.2516 71.0913 91.9527 71.3141 91.6788 71.5369C91.355 71.7844 91.0312 72.032 90.8569 72.5023C90.8071 72.6261 90.832 72.7004 90.8569 72.8489C91.0312 72.8241 91.1807 72.7994 91.355 72.7994C91.8282 72.7994 92.2765 72.9232 92.6501 73.1707C92.7746 73.245 92.8743 73.344 92.9988 73.443C93.4222 73.8391 93.746 74.458 93.9203 75.1759C94.1445 76.0918 94.0199 76.983 93.6214 77.7009C93.6214 77.7009 93.6214 77.7009 93.6214 77.7256C93.8954 77.7504 94.1694 77.7256 94.4931 77.7256C94.518 77.7256 94.518 77.7256 94.5928 77.7256C95.066 77.7256 95.4396 77.7256 95.7135 77.7256C95.315 77.0325 95.1905 76.1166 95.4147 75.2006Z" fill="white"/>
<path d="M101.567 72.6509C101.517 72.5024 101.442 72.3539 101.368 72.2053C100.969 71.4627 100.346 70.7943 99.6988 70.3487C99.2505 70.0516 98.8022 69.8289 98.4037 69.7298C98.3539 69.7298 98.3041 69.7298 98.2543 69.7051C98.1547 69.8289 98.0551 69.9279 97.9554 70.0269C97.806 70.1754 97.6317 70.2992 97.4324 70.423C97.3079 70.4972 97.1834 70.5467 97.0588 70.621C97.1585 71.2151 98.1547 71.3637 98.5532 72.4034C98.5532 72.4034 98.5532 72.4034 98.5532 72.4281C98.6279 72.6014 98.603 72.7499 98.5781 72.8985C99.4 73.047 100.048 73.4678 100.396 74.0867C100.471 74.2105 100.521 74.3343 100.571 74.4828C100.595 74.5818 100.62 74.6808 100.645 74.7551C101.118 74.5818 101.417 74.3343 101.592 74.0372C101.691 73.8392 101.741 73.5916 101.741 73.3193C101.716 73.1213 101.666 72.8985 101.567 72.6509Z" fill="white"/>
<path d="M90.5581 72.9727C90.5083 72.7995 90.4833 72.6509 90.5581 72.4529V72.4281C90.9566 71.3637 92.0026 71.2399 92.0524 70.5963C92.0026 70.5715 91.9528 70.5468 91.903 70.522C91.6788 70.3982 91.4547 70.2249 91.2803 70.0516C91.1558 69.9526 91.0562 69.8289 90.9566 69.7051C90.8818 69.7051 90.8071 69.7051 90.7075 69.7298C90.309 69.8041 89.8607 70.0269 89.4124 70.3487C88.7648 70.7943 88.1422 71.4379 87.7437 72.2053C87.669 72.3539 87.5943 72.5024 87.5445 72.6509C87.4448 72.8985 87.395 73.146 87.3701 73.3441C87.3452 73.5916 87.395 73.8392 87.4946 74.062C87.669 74.3838 88.0177 74.6561 88.5407 74.8294C88.5656 74.8294 88.6154 74.8541 88.6652 74.8541C88.6901 74.7303 88.715 74.6066 88.7648 74.5075C88.8147 74.359 88.8645 74.2352 88.9392 74.1115C89.3128 73.5421 89.8607 73.1708 90.5581 72.9727Z" fill="white"/>
<path fill-rule="evenodd" clip-rule="evenodd" d="M182.062 68.8138C182.062 68.7148 182.062 68.6158 182.062 68.5167C182.161 68.2692 182.36 68.1207 182.585 67.9969C183.905 67.3038 185.225 66.5859 186.52 65.868C186.569 65.8432 186.619 65.8185 186.694 65.7937C186.694 65.8185 186.719 65.8432 186.719 65.8432C186.719 65.868 186.719 65.9175 186.694 65.9422C186.619 66.8582 186.794 67.6751 187.466 68.3187C188.263 69.1109 189.334 69.2594 190.231 68.6653C190.48 68.492 190.679 68.2692 190.903 68.0712C190.928 68.1207 190.978 68.1702 191.028 68.2197C191.725 69.0614 192.796 69.2594 193.742 68.7395C194.614 68.2444 195.037 67.4523 195.087 66.4621C195.087 66.2393 195.087 66.0165 195.087 65.7937C195.137 65.8185 195.187 65.8432 195.237 65.868C196.557 66.5859 197.877 67.3038 199.222 68.0216C199.446 68.1454 199.645 68.294 199.745 68.5415C199.745 68.6405 199.745 68.7395 199.745 68.8386C199.72 68.8633 199.72 68.8881 199.695 68.9128C199.371 69.7545 199.047 70.5962 198.724 71.4378C198.624 71.6854 198.474 71.8339 198.25 71.8092C198.151 71.8092 198.051 71.7596 197.951 71.7349C197.553 71.5369 197.154 71.3388 196.756 71.1408C196.482 71.017 196.283 71.116 196.258 71.4131C196.233 71.5616 196.233 71.7101 196.233 71.8339C196.183 73.8638 196.133 75.8937 196.083 77.9236C196.083 78.0474 196.009 78.1959 195.934 78.295C195.81 78.4435 195.61 78.4682 195.411 78.4682C192.397 78.4682 189.384 78.4682 186.37 78.4682C186.296 78.4682 186.221 78.4682 186.121 78.4435C185.847 78.394 185.673 78.1959 185.673 77.9236C185.648 76.8839 185.623 75.869 185.598 74.8293C185.573 73.7153 185.548 72.6013 185.523 71.4873C185.523 71.0665 185.324 70.9675 184.951 71.1408C184.577 71.3141 184.203 71.5121 183.83 71.6854C183.456 71.8587 183.207 71.7596 183.058 71.3883C182.933 71.0913 182.834 70.7694 182.709 70.4724C182.51 69.9278 182.286 69.3584 182.062 68.8138ZM190.903 71.3636C190.654 71.3636 190.43 71.5864 190.43 71.8339C190.43 72.0815 190.654 72.3043 190.903 72.3043C191.152 72.3043 191.401 72.0815 191.376 71.8339C191.376 71.5616 191.152 71.3636 190.903 71.3636ZM190.903 70.3981C191.177 70.3981 191.376 70.2001 191.376 69.9525C191.376 69.705 191.152 69.4822 190.903 69.4822C190.654 69.4822 190.43 69.705 190.43 69.9525C190.43 70.1753 190.629 70.3981 190.903 70.3981ZM190.903 73.2697C190.629 73.2697 190.405 73.4677 190.405 73.74C190.405 73.9876 190.604 74.2104 190.853 74.2104C191.127 74.2104 191.351 74.0123 191.351 73.7648C191.376 73.4925 191.177 73.2697 190.903 73.2697Z" fill="white"/>
<path fill-rule="evenodd" clip-rule="evenodd" d="M190.305 67.0812C190.081 67.5763 189.782 67.9723 189.234 68.0466C188.761 68.1209 188.413 67.8981 188.114 67.5763C187.715 67.1554 187.591 66.6603 187.641 66.091C187.641 65.9919 187.665 65.8929 187.69 65.7444C188.462 66.4128 189.309 66.8831 190.305 67.0812Z" fill="white"/>
<path fill-rule="evenodd" clip-rule="evenodd" d="M194.066 65.8186C194.141 66.1157 194.166 66.4127 194.116 66.685C194.016 67.2791 193.693 67.7247 193.12 67.9723C192.622 68.1951 192.074 68.0218 191.725 67.5762C191.626 67.4277 191.526 67.2791 191.426 67.1059C192.447 66.9326 193.294 66.4622 194.066 65.8186Z" fill="white"/>
<path fill-rule="evenodd" clip-rule="evenodd" d="M165.624 71.1656C165.599 71.1903 165.574 71.2151 165.574 71.2399C165.25 71.6854 164.926 72.1558 164.553 72.5766C164.328 72.8489 164.054 73.146 163.756 73.3688C163.233 73.7649 162.635 73.5916 162.411 72.9727C162.162 72.3538 162.759 71.1408 162.784 71.0666C163.208 70.0764 163.581 69.0614 164.005 68.0712C164.03 67.9969 164.03 67.9474 163.955 67.8979C163.233 67.2048 162.411 66.7592 161.439 66.5364C160.418 66.2889 159.397 66.3136 158.376 66.5117C156.782 66.8087 155.462 67.5761 154.466 68.8634C153.768 69.7546 153.345 70.7695 153.171 71.8835C153.146 72.0815 153.121 72.2548 153.096 72.4528C153.096 72.7499 153.096 73.0222 153.096 73.3193C153.121 73.443 153.146 73.5668 153.146 73.6906C153.245 74.4827 153.494 75.2254 153.918 75.9185C154.59 76.983 155.512 77.7504 156.633 78.295C157.156 78.5426 157.704 78.6663 158.276 78.5921C158.974 78.493 159.522 78.1465 159.995 77.6514C160.493 77.1563 160.891 76.5622 161.215 75.9433C161.414 75.572 161.713 75.4482 162.112 75.473C162.361 75.4977 162.635 75.4977 162.884 75.473C163.955 75.3739 164.752 74.8293 165.225 73.8639C165.474 73.344 165.624 72.7994 165.648 72.2548C165.673 71.9082 165.648 71.5369 165.648 71.1903C165.648 71.1656 165.624 71.1656 165.624 71.1656ZM156.309 69.7793C156.931 69.7793 157.43 70.2992 157.43 70.918C157.43 71.5369 156.907 72.0568 156.309 72.032C155.686 72.032 155.163 71.5122 155.188 70.8933C155.188 70.2249 155.711 69.7793 156.309 69.7793ZM155.661 74.9283C155.039 74.9283 154.54 74.4332 154.516 73.8144C154.516 73.1955 155.014 72.7004 155.636 72.6756C156.259 72.6756 156.782 73.1707 156.782 73.7896C156.782 74.4332 156.284 74.9283 155.661 74.9283ZM157.903 77.2058C157.28 77.2058 156.757 76.6859 156.757 76.0671C156.757 75.4482 157.255 74.9531 157.903 74.9531C158.525 74.9531 159.024 75.4482 159.024 76.0671C159.024 76.6859 158.525 77.181 157.903 77.2058ZM158.824 70.0516C158.202 70.0516 157.679 69.5318 157.679 68.9129C157.679 68.294 158.202 67.7989 158.824 67.7989C159.447 67.7989 159.945 68.294 159.945 68.9129C159.945 69.5565 159.447 70.0516 158.824 70.0516Z" fill="white"/>
<path fill-rule="evenodd" clip-rule="evenodd" d="M166.495 64.2341C166.744 65.2243 165.548 65.7689 165.025 66.4621C164.676 66.9077 164.602 67.4275 164.826 67.9474C165.05 68.4425 165.449 68.69 165.972 68.7643C166.694 68.8386 167.341 68.3187 167.491 67.6008C167.541 67.4523 167.989 65.2491 166.495 64.2341Z" fill="white"/>
<path fill-rule="evenodd" clip-rule="evenodd" d="M163.705 69.8538C163.382 70.5964 162.933 71.7846 162.834 72.0074C162.734 72.2302 162.709 72.5273 162.809 72.7748C162.884 73.0224 163.083 73.1709 163.407 73.0719C163.631 72.9976 163.805 72.8739 163.954 72.7006C164.303 72.2302 164.677 71.7599 165.025 71.2648C165.15 71.1163 165.25 70.943 165.374 70.7944C164.751 70.7449 164.154 70.5469 163.705 69.8538Z" fill="white"/>
<path fill-rule="evenodd" clip-rule="evenodd" d="M164.428 68.22C164.304 68.517 164.179 68.8141 164.055 69.0864C164.055 69.1111 164.055 69.1854 164.08 69.2102C164.279 69.4825 164.453 69.6805 164.727 69.8538C165.001 70.0271 165.4 70.0766 165.748 70.1261C165.848 70.1509 165.923 70.1261 165.972 70.0271C166.122 69.829 166.271 69.631 166.421 69.433C166.495 69.3587 166.545 69.2597 166.62 69.1607C165.723 69.5072 164.877 69.2102 164.428 68.22Z" fill="white"/>
<path d="M128.265 63.2935C125.501 63.0707 123.085 65.1501 122.861 67.8979C122.637 70.6457 124.729 73.0469 127.493 73.2697C130.258 73.4925 132.674 71.4131 132.898 68.6653C133.097 65.9175 131.03 63.4915 128.265 63.2935ZM124.355 68.2692C124.305 68.7891 124.081 69.1851 123.807 69.1851C123.558 69.1604 123.359 68.7148 123.409 68.1949C123.458 67.6751 123.683 67.279 123.957 67.279C124.206 67.3285 124.38 67.7494 124.355 68.2692ZM126.771 64.5312C125.65 65.1006 125.127 65.9175 124.853 66.3878C124.704 66.6354 124.455 66.9572 124.106 66.7592C123.832 66.6106 123.957 66.1403 124.006 66.0165C124.231 65.3976 124.953 64.4569 126.497 64.1104C126.746 64.0609 126.871 64.1351 126.92 64.2589C126.945 64.3332 126.871 64.4569 126.771 64.5312Z" fill="white"/>
<path d="M130.481 75.4482C129.61 75.4482 128.713 75.4729 128.339 75.0026C128.115 74.755 128.065 74.3589 128.19 73.8143C128.19 73.7896 128.19 73.7896 128.19 73.7648C128.29 73.7153 128.439 73.8143 128.514 73.8886C128.613 73.9876 128.962 74.2847 129.136 74.0866C129.311 73.9134 128.837 73.5173 128.663 73.344C128.29 73.3935 127.891 73.4183 127.493 73.3935C127.468 73.3935 127.443 73.3935 127.418 73.3935C127.318 73.4925 127.219 73.6411 127.119 73.8638C126.621 74.8045 127.244 74.3342 127.343 74.1857C127.567 73.9134 127.642 73.9629 127.791 74.1609C127.767 74.6312 127.866 74.9778 128.09 75.2501C128.588 75.8442 129.56 75.8442 130.531 75.8195C131.278 75.8195 132.05 75.7947 132.299 76.1413C132.424 76.3146 132.424 76.6116 132.324 77.0077C132.225 77.3048 132.1 77.4781 131.876 77.5771C131.204 77.8742 129.958 77.3295 128.738 76.7849C127.069 76.0423 125.376 75.2749 124.678 76.4879C124.504 76.8097 124.454 77.1067 124.554 77.379C124.728 77.8989 125.425 78.1712 126.148 78.4435C127.318 78.8891 128.065 79.2604 127.866 80.1516C127.841 80.2506 127.916 80.3496 128.016 80.3744C128.041 80.3744 128.041 80.3744 128.065 80.3744C128.14 80.3744 128.24 80.3249 128.24 80.2259C128.514 78.9634 127.293 78.493 126.297 78.0969C125.65 77.8494 125.052 77.6018 124.927 77.2553C124.877 77.1067 124.902 76.9087 125.027 76.6859C125.55 75.7947 127.094 76.4879 128.588 77.1563C129.933 77.7504 131.204 78.3197 132.025 77.9484C132.349 77.7999 132.548 77.5276 132.673 77.1563C132.822 76.6364 132.798 76.2403 132.598 75.968C132.2 75.4234 131.378 75.4234 130.481 75.4482Z" fill="white"/>
</svg>
